<svg width="23" height="28" viewBox="0 0 23 28" fill="none" xmlns="http://www.w3.org/2000/svg">
<path d="M15.1523 5.17578C15.9863 4.16406 16.5742 2.7832 16.5742 1.38867C16.5742 1.19727 16.5605 1.00586 16.5332 0.855469C15.166 0.910156 13.5254 1.75781 12.5547 2.90625C11.7754 3.78125 11.0645 5.17578 11.0645 6.57031C11.0645 6.78906 11.1055 6.99414 11.1191 7.0625C11.2012 7.07617 11.3379 7.10352 11.4883 7.10352C12.7051 7.10352 14.2363 6.2832 15.1523 5.17578ZM16.1094 7.39062C14.0723 7.39062 12.4043 8.63477 11.3379 8.63477C10.2031 8.63477 8.72656 7.47266 6.94922 7.47266C3.57227 7.47266 0.154297 10.2617 0.154297 15.5117C0.154297 18.793 1.41211 22.252 2.98438 24.4805C4.32422 26.3672 5.5 27.9121 7.19531 27.9121C8.86328 27.9121 9.60156 26.8047 11.6797 26.8047C13.7852 26.8047 14.2637 27.8848 16.1094 27.8848C17.9414 27.8848 19.1582 26.2031 20.3203 24.5488C21.6055 22.6484 22.1523 20.8027 22.166 20.707C22.0566 20.6797 18.5566 19.2441 18.5566 15.2383C18.5566 11.7656 21.3047 10.207 21.4688 10.084C19.6504 7.47266 16.875 7.39062 16.1094 7.39062Z" fill="black"/>
</svg>
