<svg width="26" height="32" viewBox="0 0 26 32" fill="none" xmlns="http://www.w3.org/2000/svg">
<path fill-rule="evenodd" clip-rule="evenodd" d="M4.97199 8.31802H24.2157C24.6973 8.31802 25.0812 8.71349 25.0877 9.19464V31.1234C25.0877 31.6045 24.7038 32 24.2222 32H4.97199C2.23219 32 0 29.7392 0 26.9644V5.03563C0 2.26076 2.23219 0 4.97199 0H24.2222C24.6973 0 25.0877 0.388877 25.0877 0.876622C25.0877 1.35778 24.7038 1.75324 24.2222 1.75324H4.97199C3.18233 1.75324 1.73109 3.22966 1.73109 5.03563C1.73109 6.8482 3.18884 8.31802 4.97199 8.31802ZM4.97199 30.2468H23.3501V10.0779H4.97199C3.7355 10.0779 2.60314 9.61648 1.73109 8.8585V26.9644C1.73109 28.7769 3.18884 30.2468 4.97199 30.2468ZM5.24532 4.2381C4.76374 4.2381 4.37978 4.63357 4.37978 5.11473C4.37978 5.59588 4.77025 5.99135 5.24532 5.99135H21.5019C21.9835 5.99135 22.3674 5.59588 22.3674 5.11473C22.3674 4.63357 21.977 4.2381 21.5019 4.2381H5.24532ZM17.4052 20.5355H17.4958C18.5381 20.5355 19.3863 21.497 19.386 22.6775V23.3924C19.386 24.574 18.5378 25.535 17.4955 25.535H16.6541L16.5795 25.6089C16.5094 25.6785 16.4168 25.7134 16.3248 25.7134C16.2328 25.7134 16.1405 25.6785 16.07 25.6089C15.9873 25.5263 15.9591 25.4146 15.9739 25.3074C15.9119 25.2208 15.8744 25.1143 15.8744 24.9996V21.0711C15.8744 20.7752 16.1166 20.5355 16.4145 20.5355H16.6846V20.0793C16.4704 19.9557 16.3248 19.7281 16.3248 19.4642C16.3248 17.3965 14.6288 15.7142 12.5439 15.7142C10.4589 15.7142 8.76265 17.3965 8.76265 19.4642C8.76265 19.7281 8.61707 19.9557 8.40278 20.0793V20.5355H8.67298C8.97112 20.5355 9.21306 20.7752 9.21306 21.0711V25.0002C9.21306 25.1151 9.1758 25.2211 9.11349 25.3083C9.12863 25.4154 9.10039 25.5275 9.01741 25.6098C8.94724 25.6793 8.85495 25.7143 8.76265 25.7143C8.67065 25.7143 8.57835 25.6793 8.50818 25.6098L8.43365 25.5358H7.59221C6.54988 25.5358 5.70175 24.5749 5.70175 23.3933V22.678C5.70175 21.497 6.54988 20.5361 7.59192 20.5361H7.68218V20.0798C7.4676 19.956 7.32202 19.7284 7.32202 19.4645C7.32202 16.609 9.66464 14.2857 12.5439 14.2857C15.4234 14.2857 17.7657 16.609 17.7657 19.4642C17.7657 19.7281 17.6201 19.9557 17.4052 20.0793V20.5355Z" fill="white"/>
</svg>
