<svg width="375" height="342" viewBox="0 0 375 342" fill="none" xmlns="http://www.w3.org/2000/svg">
<path d="M362.753 161.333C405.095 144.351 447.437 127.368 489.779 101.895C498.247 93.4035 506.716 93.4035 523.653 84.9123C532.121 84.9123 532.121 84.9123 540.59 84.9123C549.058 84.9123 549.058 93.4035 557.526 93.4035C582.932 101.895 599.868 84.9123 608.337 67.9298C625.274 50.9474 642.211 33.9649 667.616 16.9824C676.084 8.49122 684.553 -1.23978e-05 693.021 8.49122C701.49 8.49122 701.49 16.9824 709.958 16.9824L718.426 25.4737C735.363 42.4561 752.3 50.9474 769.237 59.4386C777.705 67.9298 786.174 67.9298 794.642 76.421C803.111 76.421 811.579 84.9123 820.047 76.421C820.047 76.421 820.047 67.9298 828.516 67.9298C836.984 67.9298 836.984 67.9298 845.453 67.9298C853.921 67.9298 853.921 76.421 853.921 76.421L862.39 84.9123C879.326 101.895 896.263 118.877 904.732 135.86C904.732 135.86 913.2 144.351 921.668 144.351C904.732 127.368 887.795 110.386 870.858 93.4035C862.389 84.9123 853.921 76.421 853.921 67.9298C845.453 59.4386 836.984 50.9474 828.516 50.9474C828.516 50.9474 820.047 50.9474 820.047 59.4386L811.579 67.9298C803.111 67.9298 803.111 67.9298 794.642 59.4386C786.174 59.4386 786.174 50.9474 777.705 50.9474C760.768 42.4561 735.363 25.4737 718.426 16.9824C709.958 8.49122 701.49 -1.23978e-05 693.021 -8.49124C693.021 8.49122 684.553 -1.23978e-05 676.084 -1.23978e-05C667.616 -1.23978e-05 667.616 8.49122 667.616 8.49122C659.147 8.49122 659.147 16.9824 650.679 16.9824C642.211 25.4737 633.742 33.9649 625.274 42.4561C616.805 50.9474 608.337 59.4386 599.868 67.9298C582.932 76.421 574.463 84.9123 565.995 84.9123C557.526 84.9123 557.526 84.9123 549.058 84.9123C540.589 84.9123 540.589 76.421 532.121 76.421C523.653 67.9298 515.184 76.421 506.716 84.9123C464.374 110.386 422.032 127.368 379.689 144.351C371.221 152.842 371.221 152.842 362.753 161.333Z" fill="white"/>
<path d="M-35.2632 263.228C49.421 237.754 134.105 220.772 218.789 195.298C244.195 186.807 261.132 178.316 286.537 169.825C295.005 169.825 303.474 169.825 311.942 161.333C320.41 161.333 320.41 161.333 328.879 152.842C337.347 152.842 337.347 144.351 345.816 144.351C354.284 144.351 362.753 152.842 379.689 152.842C388.158 169.825 396.626 178.316 405.095 178.316C422.031 186.807 447.437 195.298 464.374 195.298C489.779 195.298 515.184 203.789 540.589 203.789C565.995 212.281 591.4 220.772 608.337 220.772C582.932 246.246 557.526 254.737 532.121 263.228C506.716 271.719 481.31 280.211 447.437 297.193C438.968 297.193 422.031 305.684 405.095 314.175C422.031 314.175 430.5 314.175 447.437 322.667C455.905 322.667 455.905 322.667 464.374 322.667C472.842 322.667 472.842 322.667 481.31 331.158C481.31 331.158 489.779 339.649 489.779 348.14L498.247 356.632C506.716 356.632 515.184 365.123 523.653 365.123C574.463 365.123 625.274 365.123 676.084 365.123C693.021 365.123 701.489 365.123 718.426 365.123C726.895 365.123 735.363 365.123 743.831 365.123H752.3C752.3 365.123 752.3 365.123 760.768 365.123C760.768 365.123 760.768 365.123 760.768 356.632L752.3 348.14C735.363 348.14 726.895 348.14 709.958 348.14C684.553 348.14 650.679 348.14 625.274 348.14C599.868 348.14 565.995 348.14 540.589 348.14C532.121 348.14 515.184 348.14 506.716 348.14C498.247 348.14 498.247 348.14 489.779 339.649C481.31 339.649 481.31 331.158 481.31 322.667C481.31 314.175 472.842 314.175 472.842 314.175C464.374 314.175 455.905 314.175 455.905 314.175C438.968 314.175 422.031 314.175 405.095 305.684C430.5 288.702 464.374 280.211 489.779 271.719C515.184 263.228 540.589 254.737 565.995 237.754C582.932 229.263 591.4 220.772 599.868 212.281C582.932 203.789 557.526 195.298 532.121 195.298C515.184 186.807 489.779 186.807 472.842 186.807C447.437 186.807 430.5 178.316 405.095 169.825C405.095 178.316 396.626 169.825 388.158 169.825C379.689 161.333 371.221 161.333 354.284 152.842C345.816 152.842 337.347 152.842 328.879 152.842C320.41 161.333 311.942 161.333 303.474 169.825C278.068 169.825 261.132 178.316 235.726 186.807C193.384 203.789 151.042 212.281 108.7 229.263C57.8894 237.754 7.07892 254.737 -35.2632 263.228Z" fill="white"/>
<path d="M354.284 152.842C345.816 169.825 337.347 178.316 320.41 186.807C311.942 195.298 303.474 203.789 286.537 212.281C269.6 229.263 244.195 246.246 227.258 263.228C176.447 288.702 134.105 322.667 83.2947 348.14C57.8895 365.123 24.0158 373.614 -1.38947 390.596C32.4842 356.632 66.3579 322.667 108.7 288.702C125.637 288.702 134.105 280.211 142.574 271.719C108.7 280.211 74.8263 288.702 32.4842 297.193C40.9527 297.193 49.4211 288.702 49.4211 280.211C24.0158 288.702 -9.85789 305.684 -35.2632 314.175C-60.6684 322.667 -94.5421 339.649 -128.416 348.14C-145.353 348.14 -162.289 356.632 -179.226 356.632C-145.353 348.14 -119.947 339.649 -86.0737 331.158C-69.1368 322.667 -52.2 322.667 -43.7316 314.175C-26.7947 305.684 -18.3263 305.684 -1.38947 297.193C15.5474 288.702 32.4842 288.702 49.4211 280.211C49.4211 288.702 40.9527 297.193 32.4842 305.684C66.3579 297.193 108.7 288.702 142.574 271.719C100.232 297.193 57.8895 331.158 24.0158 365.123C15.5474 373.614 7.07896 382.105 -1.38947 390.596C49.4211 373.614 100.232 339.649 151.042 314.175C201.853 280.211 244.195 254.737 286.537 212.281C295.005 203.789 311.942 195.298 320.41 186.807C337.347 178.316 345.816 169.825 354.284 152.842Z" fill="white"/>
<path d="M40.9526 237.754C24.0158 237.754 15.5474 229.263 -1.38947 220.772C-9.85788 212.281 -18.3263 212.281 -35.2632 203.789C-43.7316 195.298 -52.2 186.807 -60.6684 186.807C-69.1368 186.807 -86.0737 195.298 -94.5421 195.298C-103.011 203.789 -119.947 212.281 -128.416 220.772C-136.884 229.263 -145.353 229.263 -162.289 237.754C-179.226 246.246 -204.632 263.228 -230.037 271.719C-255.442 280.211 -280.847 297.193 -306.253 305.684C-263.911 288.702 -213.1 271.719 -170.758 246.246C-145.353 237.754 -128.416 220.772 -103.011 212.281C-94.5421 203.789 -86.0737 195.298 -69.1368 195.298C-60.6684 195.298 -60.6684 195.298 -52.2 195.298C-43.7316 195.298 -43.7316 195.298 -35.2632 203.789C-18.3263 212.281 -9.85788 220.772 7.07895 220.772C7.07895 229.263 24.0158 237.754 40.9526 237.754C40.9526 246.246 40.9526 246.246 40.9526 237.754Z" fill="white"/>
<path d="M354.284 161.333C354.284 161.333 354.284 152.842 354.284 161.333C354.284 152.842 354.284 161.333 354.284 161.333C345.816 169.825 345.816 178.316 337.347 178.316C328.879 186.807 320.411 195.298 320.411 203.789C328.879 186.807 345.816 169.825 354.284 161.333C354.284 152.842 354.284 152.842 354.284 161.333C354.284 152.842 354.284 161.333 354.284 161.333Z" fill="white"/>
<path d="M354.284 161.333C345.816 178.316 337.347 195.298 320.411 203.789C337.347 195.298 345.816 178.316 354.284 161.333Z" fill="white"/>
<path d="M354.284 169.825C354.284 178.316 345.816 186.807 337.347 195.298C337.347 203.789 328.879 212.281 320.411 220.772C328.879 212.281 328.879 203.789 337.347 195.298C345.816 186.807 354.284 178.316 354.284 169.825Z" fill="white"/>
<path d="M345.816 195.298C337.347 203.789 328.879 212.281 320.411 229.263C328.879 220.772 337.347 203.789 345.816 195.298Z" fill="white"/>
<path d="M337.347 212.281C328.879 220.772 328.879 229.263 320.411 237.754C328.879 229.263 328.879 220.772 337.347 212.281Z" fill="white"/>
<path d="M328.879 237.754L320.411 246.246C320.411 246.246 328.879 246.246 328.879 237.754C328.879 246.246 328.879 246.246 328.879 246.246C328.879 246.246 328.879 254.737 320.411 254.737C328.879 254.737 328.879 246.246 328.879 237.754C328.879 237.754 328.879 246.246 328.879 237.754C320.411 246.246 320.411 246.246 328.879 237.754C320.411 237.754 328.879 237.754 328.879 237.754Z" fill="white"/>
<path d="M320.41 263.228V271.719C320.41 271.719 320.41 271.719 320.41 280.211C320.41 280.211 320.41 280.211 320.41 288.702C320.41 297.193 311.942 305.684 311.942 305.684C303.474 305.684 295.005 314.175 295.005 322.667C295.005 331.158 295.005 339.649 295.005 339.649C295.005 331.158 295.005 322.667 295.005 322.667C303.474 314.175 303.474 305.684 311.942 305.684C311.942 297.193 320.41 297.193 320.41 288.702C320.41 288.702 320.41 288.702 320.41 280.211C320.41 271.719 320.41 271.719 320.41 263.228Z" fill="white"/>
<path d="M320.41 195.298C295.005 212.281 278.068 237.754 252.663 254.737C278.068 237.754 295.005 212.281 320.41 195.298Z" fill="white"/>
<path d="M278.068 229.263C261.132 246.246 244.195 254.737 227.258 271.719C244.195 254.737 261.132 246.246 278.068 229.263Z" fill="white"/>
<path d="M295.005 212.281C269.6 237.754 244.195 254.737 218.789 271.719C244.195 254.737 269.6 237.754 295.005 212.281Z" fill="white"/>
<path d="M278.068 237.754C252.663 254.737 227.258 271.719 201.853 297.193C227.258 271.719 252.663 254.737 278.068 237.754Z" fill="white"/>
<path d="M269.6 246.246C261.132 254.737 244.195 263.228 235.726 271.719C227.258 280.211 218.79 288.702 210.321 297.193C218.79 288.702 227.258 280.211 235.726 271.719C244.195 263.228 261.132 254.737 269.6 246.246Z" fill="white"/>
<path d="M244.195 271.719C227.258 280.211 218.79 288.702 210.321 305.684C218.79 288.702 227.258 280.211 244.195 271.719Z" fill="white"/>
<path d="M235.726 280.211C227.258 297.193 218.79 305.684 210.321 314.175C210.321 314.175 210.321 314.175 218.79 314.175C218.79 314.175 218.79 314.175 218.79 305.684C218.79 305.684 218.79 305.684 218.79 297.193C227.258 297.193 235.726 288.702 235.726 280.211Z" fill="white"/>
<path d="M227.258 297.193C218.79 305.684 210.321 314.175 210.321 322.667V331.158C210.321 331.158 210.321 322.667 218.79 322.667C218.79 305.684 227.258 305.684 227.258 297.193Z" fill="white"/>
<path d="M218.79 322.667C218.79 331.158 210.321 331.158 210.321 339.649C210.321 331.158 210.321 331.158 218.79 322.667Z" fill="white"/>
<path d="M210.321 339.649C210.321 348.14 210.321 348.14 201.853 356.632C201.853 356.632 210.321 348.14 210.321 339.649Z" fill="white"/>
<path d="M218.789 322.667C210.321 331.158 201.853 339.649 193.384 356.632C201.853 348.14 210.321 331.158 218.789 322.667Z" fill="white"/>
<path d="M210.321 339.649C210.321 348.14 201.853 356.632 193.384 356.632C193.384 356.632 193.384 356.632 201.853 348.14C201.853 356.632 193.384 356.632 193.384 365.123C193.384 365.123 193.384 365.123 201.853 365.123L193.384 373.614C201.853 365.123 201.853 365.123 201.853 356.632C201.853 356.632 201.853 356.632 193.384 356.632C193.384 356.632 193.384 348.14 201.853 348.14C201.853 348.14 193.384 348.14 193.384 356.632C201.853 348.14 210.321 348.14 210.321 339.649Z" fill="white"/>
<path d="M218.789 271.719C193.384 297.193 159.511 314.175 125.637 339.649C159.511 314.175 193.384 297.193 218.789 271.719Z" fill="white"/>
<path d="M210.321 280.211C167.979 305.684 134.105 331.158 100.232 356.632C134.105 331.158 167.979 305.684 210.321 280.211Z" fill="white"/>
<path d="M184.916 297.193C151.042 314.175 108.7 339.649 74.8263 365.123C108.7 339.649 151.042 314.175 184.916 297.193Z" fill="white"/>
<path d="M405.095 314.175C388.158 322.667 371.221 331.158 354.284 339.649C337.347 356.632 311.942 365.123 295.005 373.614C311.942 365.123 328.879 356.632 345.816 348.14C371.221 331.158 388.158 322.667 405.095 314.175Z" fill="white"/>
<path d="M320.411 356.632C328.879 348.14 337.347 339.649 345.816 331.158C337.347 339.649 328.879 348.14 320.411 356.632Z" fill="white"/>
<path d="M337.347 348.14C337.347 348.14 328.879 356.632 337.347 348.14C337.347 339.649 345.816 339.649 345.816 339.649C354.284 331.158 354.284 331.158 362.753 322.667C345.816 331.158 337.347 339.649 337.347 348.14C328.879 356.632 328.879 356.632 337.347 348.14C328.879 356.632 337.347 348.14 337.347 348.14Z" fill="white"/>
<path d="M345.816 348.14L354.284 339.649C354.284 339.649 362.753 331.158 371.221 331.158C354.284 331.158 345.816 339.649 345.816 348.14C337.347 348.14 337.347 348.14 345.816 348.14Z" fill="white"/>
<path d="M354.284 339.649C354.284 331.158 371.221 322.667 379.689 314.175C371.221 322.667 362.753 331.158 354.284 339.649Z" fill="white"/>
<path d="M371.221 331.158C362.753 331.158 362.753 339.649 371.221 331.158C362.753 339.649 362.753 339.649 371.221 331.158C371.221 331.158 379.689 322.667 388.158 314.175C379.689 322.667 371.221 331.158 371.221 331.158C362.753 339.649 362.753 339.649 371.221 331.158C362.753 339.649 371.221 339.649 371.221 331.158Z" fill="white"/>
<path d="M311.942 365.123C328.879 356.632 345.816 356.632 362.753 348.14C379.689 348.14 396.626 339.649 413.563 331.158C422.032 331.158 422.032 331.158 430.5 331.158C438.968 331.158 438.968 331.158 447.437 322.667C438.968 322.667 438.968 322.667 430.5 322.667C422.032 322.667 422.032 322.667 413.563 322.667C405.095 331.158 396.626 339.649 388.158 339.649C371.221 348.14 354.284 348.14 337.347 356.632C328.879 356.632 320.411 365.123 311.942 365.123Z" fill="white"/>
<path d="M354.284 348.14C345.816 348.14 345.816 356.632 354.284 348.14C345.816 356.632 345.816 356.632 354.284 348.14C354.284 348.14 362.753 339.649 371.221 331.158C362.753 339.649 354.284 348.14 354.284 348.14C345.816 356.632 345.816 356.632 354.284 348.14C345.816 356.632 345.816 348.14 354.284 348.14Z" fill="white"/>
<path d="M362.753 348.14C354.284 348.14 354.284 348.14 362.753 348.14C354.284 348.14 354.284 348.14 362.753 348.14C371.221 339.649 371.221 339.649 379.689 339.649C371.221 339.649 362.753 348.14 362.753 348.14C354.284 348.14 354.284 348.14 362.753 348.14C354.284 348.14 354.284 348.14 362.753 348.14Z" fill="white"/>
<path d="M371.221 348.14C371.221 348.14 362.753 348.14 371.221 348.14C362.753 348.14 362.753 348.14 371.221 348.14C371.221 348.14 371.221 339.649 371.221 348.14C379.689 339.649 388.158 339.649 388.158 331.158C379.689 339.649 371.221 339.649 371.221 348.14C362.753 348.14 362.753 348.14 371.221 348.14C362.753 348.14 371.221 348.14 371.221 348.14Z" fill="white"/>
<path d="M379.689 348.14C379.689 339.649 379.689 339.649 379.689 348.14C388.158 339.649 388.158 339.649 396.626 331.158C388.158 339.649 379.689 339.649 379.689 348.14C371.221 348.14 379.689 348.14 379.689 348.14Z" fill="white"/>
<path d="M362.753 169.825C371.221 203.789 379.689 229.263 371.221 263.228C379.689 229.263 371.221 195.298 362.753 169.825Z" fill="white"/>
<path d="M371.221 186.807C379.689 212.281 379.689 237.754 379.689 263.228C379.689 237.754 379.689 212.281 371.221 186.807Z" fill="white"/>
<path d="M-69.1368 314.175C-60.6684 305.684 -43.7316 288.702 -35.2631 280.21C-18.3263 271.719 -1.38947 263.228 7.07896 254.737C-1.38947 263.228 -18.3263 271.719 -26.7947 280.21C-43.7316 288.702 -52.2 305.684 -69.1368 314.175Z" fill="white"/>
<path d="M-43.7316 305.684C-35.2631 297.193 -18.3263 288.702 -9.85788 280.21C-1.38945 271.719 -1.38947 271.719 7.07895 271.719C15.5474 254.737 24.0158 254.737 32.4842 254.737C24.0158 254.737 15.5474 254.737 15.5474 263.228C7.07895 263.228 -1.38946 271.719 -1.38946 280.21C-18.3263 280.21 -35.2631 297.193 -43.7316 305.684Z" fill="white"/>
<path d="M-9.85791 288.702C-1.38949 280.211 15.5473 271.719 24.0157 254.737C40.9526 254.737 57.8895 246.246 74.8263 237.754C57.8895 246.246 40.9526 254.737 32.4842 263.228C15.5474 271.719 7.07893 280.211 -9.85791 288.702Z" fill="white"/>
<path d="M-1.38947 288.702C24.0158 271.719 49.4211 246.246 74.8263 237.754C57.8895 246.246 24.0158 271.719 -1.38947 288.702Z" fill="white"/>
<path d="M32.4843 271.719C40.9527 263.228 57.8895 254.737 74.8264 246.246C57.8895 254.737 40.9527 263.228 32.4843 271.719Z" fill="white"/>
<path d="M57.8895 263.228C83.2947 246.246 108.7 229.263 134.105 220.772C108.7 229.263 83.2947 246.246 57.8895 263.228Z" fill="white"/>
<path d="M74.8264 263.228C66.3579 263.228 66.3579 263.228 74.8264 263.228C66.3579 263.228 66.3579 263.228 74.8264 263.228C83.2948 254.737 91.7632 246.246 108.7 237.754C125.637 229.263 134.105 220.772 151.042 212.281C134.105 220.772 117.168 229.263 108.7 237.754C100.232 246.246 91.7632 246.246 83.2948 254.737C83.2948 254.737 74.8264 254.737 74.8264 263.228C74.8264 263.228 66.3579 263.228 74.8264 263.228C66.3579 263.228 66.3579 263.228 74.8264 263.228C66.3579 263.228 66.3579 263.228 74.8264 263.228Z" fill="white"/>
<path d="M83.2947 254.737C83.2947 263.228 83.2947 263.228 83.2947 254.737C83.2947 263.228 83.2947 263.228 83.2947 254.737C83.2947 263.228 83.2947 263.228 83.2947 254.737C83.2947 263.228 83.2947 254.737 83.2947 254.737C91.7632 254.737 91.7631 254.737 100.232 254.737C108.7 246.246 117.168 246.246 117.168 237.754C134.105 229.263 142.574 220.772 159.511 212.281C134.105 229.263 108.7 246.246 83.2947 254.737C83.2947 263.228 83.2947 263.228 83.2947 254.737C83.2947 263.228 83.2947 263.228 83.2947 254.737C91.7632 254.737 91.7632 254.737 83.2947 254.737Z" fill="white"/>
<path d="M100.232 254.737C100.232 254.737 108.7 254.737 100.232 254.737C108.7 246.246 108.7 246.246 117.168 246.246C125.637 237.754 134.105 237.754 142.574 229.263C159.511 220.772 167.979 212.281 184.916 203.789C151.042 220.772 125.637 237.754 100.232 254.737Z" fill="white"/>
<path d="M125.637 246.246C134.105 237.754 151.042 229.263 159.511 220.772C167.979 220.772 176.447 212.281 176.447 212.281C184.916 212.281 193.384 203.789 193.384 203.789C184.916 203.789 176.447 212.281 176.447 212.281C167.979 212.281 159.511 220.772 159.511 220.772C151.042 220.772 142.574 229.263 142.574 229.263C142.574 237.754 134.105 237.754 125.637 246.246C134.105 246.246 125.637 246.246 125.637 246.246Z" fill="white"/>
<path d="M142.574 237.754C176.447 220.772 201.853 203.789 235.726 186.807C210.321 203.789 176.447 220.772 142.574 237.754Z" fill="white"/>
<path d="M159.511 237.754C159.511 237.754 151.042 237.754 159.511 237.754C151.042 237.754 151.042 237.754 159.511 237.754C184.916 220.772 201.853 212.281 227.258 195.298C210.321 203.789 201.853 212.281 184.916 220.772C176.447 220.772 176.447 229.263 167.979 229.263C167.979 229.263 167.979 229.263 159.511 237.754C159.511 237.754 151.042 237.754 159.511 237.754Z" fill="white"/>
<path d="M134.105 280.211C159.51 254.737 193.384 229.263 227.258 203.789C235.726 195.298 244.195 195.298 261.132 186.807C218.789 203.789 184.916 229.263 159.511 254.737C151.042 263.228 142.574 271.719 134.105 280.211Z" fill="white"/>
<path d="M142.574 271.719C184.916 237.754 227.258 212.281 269.6 186.807C278.068 178.316 286.537 178.316 303.474 169.825C261.132 186.807 210.321 220.772 176.447 246.246C159.511 254.737 151.042 263.228 142.574 271.719Z" fill="white"/>
<path d="M210.321 229.263C235.726 203.789 269.6 186.807 303.474 169.825C303.474 169.825 311.942 161.333 328.879 161.333C311.942 169.825 295.005 178.316 278.068 186.807C261.132 195.298 244.195 203.789 227.258 212.281C218.79 220.772 210.321 229.263 210.321 229.263Z" fill="white"/>
<path d="M227.258 220.772C244.195 212.281 261.132 195.298 278.068 186.807C295.005 178.316 311.942 169.825 337.347 161.333C311.942 169.825 295.005 178.316 278.068 186.807C261.132 203.789 244.195 212.281 227.258 220.772Z" fill="white"/>
<path d="M261.132 212.281C269.6 203.789 286.537 195.298 303.474 186.807C303.474 178.316 311.942 178.316 320.411 169.825C328.879 169.825 337.347 161.333 337.347 161.333C337.347 161.333 328.879 169.825 320.411 169.825C311.942 178.316 303.474 178.316 303.474 186.807C286.537 195.298 269.6 203.789 261.132 212.281Z" fill="white"/>
<path d="M286.537 195.298C311.942 186.807 328.879 169.825 345.816 152.842C328.879 169.825 311.942 186.807 286.537 195.298Z" fill="white"/>
<path d="M320.411 186.807C328.879 178.316 345.816 169.825 354.284 152.842C354.284 161.333 345.816 161.333 337.347 169.825C328.879 169.825 328.879 178.316 320.411 186.807Z" fill="white"/>
<path d="M193.384 220.772C201.853 220.772 210.321 212.281 218.789 203.789C227.258 195.298 235.726 195.298 252.663 186.807C235.726 186.807 227.258 195.298 218.789 203.789C210.321 212.281 201.853 212.281 193.384 220.772Z" fill="white"/>
<path d="M227.258 203.789C244.195 186.807 261.132 178.316 278.068 169.825C261.132 178.316 244.195 186.807 227.258 203.789Z" fill="white"/>
<path d="M261.132 186.807C269.6 186.807 278.068 178.316 286.537 169.825C278.068 178.316 269.6 186.807 261.132 186.807Z" fill="white"/>
<path d="M32.4843 297.193C49.4211 288.702 74.8263 271.719 91.7632 254.737C74.8263 271.719 49.4211 288.702 32.4843 297.193Z" fill="white"/>
<path d="M40.9526 288.702C57.8895 280.211 74.8263 263.228 83.2947 254.737C74.8263 263.228 57.8895 280.211 40.9526 288.702Z" fill="white"/>
<path d="M49.421 288.702C57.8894 280.211 66.3579 271.719 74.8263 263.228C66.3579 263.228 57.8894 271.719 49.421 288.702Z" fill="white"/>
<path d="M49.421 280.211C49.421 271.719 57.8894 271.719 66.3578 263.228C57.8894 271.719 49.421 271.719 49.421 280.211Z" fill="white"/>
<path d="M49.421 297.193C49.421 297.193 40.9526 297.193 49.421 297.193C40.9526 297.193 40.9526 297.193 49.421 297.193C66.3579 288.702 83.2947 271.719 100.232 263.228C91.7631 263.228 83.2947 271.719 66.3578 280.211C57.8894 280.211 57.8894 288.702 49.421 288.702C57.8894 288.702 49.421 288.702 49.421 297.193C40.9526 297.193 40.9526 297.193 49.421 297.193Z" fill="white"/>
<path d="M57.8895 288.702C57.8895 288.702 57.8895 297.193 57.8895 288.702C57.8895 297.193 57.8895 297.193 57.8895 288.702C74.8263 280.211 91.7631 271.719 108.7 254.737C100.232 263.228 91.7632 271.719 83.2947 280.21C74.8263 280.21 66.3579 288.702 57.8895 288.702C57.8895 288.702 57.8895 297.193 57.8895 288.702C57.8895 297.193 57.8895 297.193 57.8895 288.702C57.8895 297.193 57.8895 297.193 57.8895 288.702Z" fill="white"/>
<path d="M74.8263 288.702C91.7631 280.211 100.232 271.719 117.168 263.228C100.232 271.719 91.7631 280.211 74.8263 288.702Z" fill="white"/>
<path d="M100.232 280.211C108.7 280.211 108.7 271.719 117.168 271.719C108.7 271.719 108.7 280.211 100.232 280.211Z" fill="white"/>
<path d="M24.0157 288.702C32.4842 280.211 49.421 271.719 57.8894 263.228C49.421 271.719 32.4842 280.211 24.0157 288.702Z" fill="white"/>
<path d="M15.5474 288.702C24.0158 280.211 32.4842 271.719 40.9526 271.719C32.4842 280.211 24.0158 280.211 15.5474 288.702Z" fill="white"/>
<path d="M15.5474 373.614C49.421 348.14 74.8263 322.667 108.7 297.193C117.168 297.193 125.637 288.702 134.105 280.211C100.232 305.684 74.8263 322.667 40.9526 356.632C32.4842 356.632 24.0158 365.123 15.5474 373.614Z" fill="white"/>
<path d="M24.0157 382.105C49.421 356.632 74.8263 339.649 108.7 314.175C117.168 305.684 125.637 297.193 134.105 297.193C100.232 314.175 74.8263 331.158 49.421 356.632C40.9526 365.123 32.4842 373.614 24.0157 382.105Z" fill="white"/>
<path d="M32.4843 373.614C57.8895 356.632 91.7632 331.158 125.637 305.684C134.105 297.193 142.574 297.193 151.042 288.702C134.105 297.193 117.168 314.175 100.232 322.667C83.2948 331.158 74.8263 348.14 57.8895 356.632C49.4211 356.632 49.4211 365.123 40.9527 365.123C40.9527 365.123 40.9527 373.614 32.4843 373.614Z" fill="white"/>
<path d="M40.9526 373.614C40.9526 373.614 49.4211 365.123 40.9526 373.614C57.8895 365.123 66.3579 356.632 74.8263 348.14C100.232 331.158 117.168 322.667 134.105 305.684C142.574 297.193 159.511 288.702 167.979 288.702C151.042 297.193 134.105 305.684 117.168 314.175C100.232 331.158 91.7632 339.649 74.8263 348.14C66.3579 348.14 66.3579 356.632 57.8895 356.632C57.8895 365.123 57.8895 365.123 40.9526 373.614C49.4211 365.123 49.4211 365.123 40.9526 373.614C49.4211 373.614 49.4211 373.614 40.9526 373.614Z" fill="white"/>
<path d="M66.3579 356.632C100.232 331.158 134.105 314.175 167.979 288.702C134.105 314.175 100.232 331.158 66.3579 356.632Z" fill="white"/>
<path d="M167.979 297.193C184.916 288.702 193.384 280.211 210.321 271.719C193.384 280.211 176.447 288.702 167.979 297.193Z" fill="white"/>
<path d="M142.574 348.14C151.042 348.14 167.979 348.14 176.447 339.649C167.979 339.649 151.042 348.14 142.574 348.14Z" fill="white"/>
<path d="M151.042 339.649C159.511 339.649 159.511 339.649 151.042 339.649C159.511 339.649 167.979 339.649 167.979 339.649C176.447 339.649 176.447 339.649 184.916 331.158C176.447 339.649 176.447 339.649 167.979 339.649C159.511 339.649 159.511 339.649 151.042 339.649Z" fill="white"/>
<path d="M235.726 356.632C235.726 356.632 227.258 356.632 235.726 356.632C227.258 356.632 227.258 365.123 235.726 356.632C235.726 356.632 244.195 348.14 252.663 348.14C261.132 348.14 269.6 339.649 278.068 339.649C269.6 339.649 261.132 348.14 252.663 348.14C244.195 356.632 235.726 356.632 235.726 356.632C227.258 356.632 227.258 356.632 235.726 356.632C227.258 356.632 235.726 356.632 235.726 356.632Z" fill="white"/>
<path d="M252.663 348.14H244.195C244.195 348.14 252.663 339.649 261.132 339.649C269.6 339.649 278.068 331.158 286.537 331.158C278.068 331.158 269.6 331.158 261.132 339.649C252.663 339.649 244.195 348.14 244.195 348.14C244.195 348.14 244.195 348.14 252.663 348.14Z" fill="white"/>
<path d="M252.663 331.158C261.132 331.158 269.6 322.667 278.068 314.175H269.6C278.068 314.175 286.537 305.684 286.537 297.193C286.537 297.193 286.537 297.193 278.068 297.193C278.068 297.193 269.6 297.193 278.068 297.193C278.068 297.193 278.068 297.193 286.537 297.193C286.537 297.193 286.537 297.193 286.537 288.702V280.211C286.537 280.211 286.537 288.702 278.068 288.702C278.068 297.193 269.6 297.193 269.6 297.193H278.068L269.6 305.684C261.132 305.684 261.132 314.175 252.663 314.175C252.663 314.175 252.663 314.175 261.132 314.175C261.132 314.175 261.132 314.175 252.663 314.175C252.663 314.175 252.663 314.175 244.195 314.175C269.6 331.158 261.132 331.158 252.663 331.158C252.663 331.158 252.663 339.649 252.663 331.158C261.132 331.158 252.663 331.158 252.663 331.158Z" fill="white"/>
<path d="M-26.7947 263.228C-18.3263 254.737 -1.38947 246.246 7.07895 237.754C-1.38947 246.246 -18.3263 254.737 -26.7947 263.228Z" fill="white"/>
<path d="M-9.85791 254.737C-1.38949 254.737 7.07891 246.246 15.5473 246.246C7.07891 246.246 -1.38949 254.737 -9.85791 254.737Z" fill="white"/>
<path d="M-69.1368 382.105C-26.7947 356.632 7.07896 339.649 40.9526 322.667C7.07896 339.649 -26.7947 356.632 -69.1368 382.105C-69.1368 373.614 -69.1368 382.105 -69.1368 382.105Z" fill="white"/>
<path d="M-9.85791 356.632C15.5474 339.649 40.9526 322.667 66.3578 305.684C40.9526 322.667 15.5474 339.649 -9.85791 356.632Z" fill="white"/>
<path d="M40.9526 322.667C15.5474 348.14 -9.85792 365.123 -35.2632 382.105C-9.85792 365.123 15.5474 348.14 40.9526 322.667Z" fill="white"/>
<path d="M278.068 246.246C286.537 246.246 295.005 237.754 303.474 229.263C286.537 237.754 286.537 246.246 278.068 246.246Z" fill="white"/>
<path d="M269.6 271.719C278.068 271.719 278.068 263.228 286.537 254.737C278.068 263.228 278.068 271.719 269.6 271.719Z" fill="white"/>
<path d="M261.132 280.211C269.6 280.211 269.6 280.211 261.132 280.211C269.6 271.719 278.068 271.719 278.068 263.228C278.068 271.719 269.6 280.211 261.132 280.211C269.6 280.211 269.6 280.211 261.132 280.211Z" fill="white"/>
<path d="M32.4843 373.614C24.0158 382.105 24.0158 382.105 32.4843 373.614C24.0158 382.105 24.0158 382.105 32.4843 373.614C24.0158 382.105 32.4843 373.614 32.4843 373.614C32.4843 365.123 32.4842 365.123 40.9527 365.123C40.9527 356.632 49.4211 348.14 49.4211 339.649C49.4211 348.14 40.9527 356.632 40.9527 356.632C32.4842 365.123 32.4843 373.614 32.4843 373.614C24.0158 382.105 24.0158 382.105 32.4843 373.614C24.0158 382.105 32.4843 382.105 32.4843 373.614Z" fill="white"/>
<path d="M40.9527 365.123C40.9527 365.123 40.9527 373.614 40.9527 365.123C32.4842 373.614 32.4843 373.614 32.4843 373.614C32.4843 373.614 32.4842 373.614 40.9527 365.123C49.4211 348.14 57.8895 339.649 66.3579 331.158C57.8895 339.649 49.4211 348.14 49.4211 356.632C40.9527 365.123 40.9527 365.123 32.4843 373.614L40.9527 365.123Z" fill="white"/>
<path d="M49.421 365.123C49.421 365.123 40.9526 365.123 49.421 365.123C40.9526 373.614 40.9526 373.614 49.421 365.123C40.9526 365.123 40.9526 365.123 49.421 365.123C40.9526 365.123 49.421 365.123 49.421 365.123L57.8894 356.632C57.8894 339.649 66.3579 331.158 74.8263 322.667C66.3579 331.158 66.3579 339.649 57.8894 348.14C49.421 356.632 49.421 365.123 49.421 365.123C40.9526 373.614 40.9526 373.614 49.421 365.123C40.9526 365.123 49.421 365.123 49.421 365.123Z" fill="white"/>
<path d="M57.8894 348.14C57.8894 356.632 49.421 365.123 49.421 365.123C57.8894 356.632 57.8894 348.14 66.3578 339.649C74.8263 331.158 83.2947 322.667 83.2947 314.175C83.2947 322.667 74.8263 331.158 66.3578 339.649C57.8894 348.14 57.8894 356.632 49.421 365.123C49.421 365.123 57.8894 356.632 57.8894 348.14Z" fill="white"/>
<path d="M74.8263 339.649C66.3579 348.14 57.8895 356.632 57.8895 365.123C66.3579 356.632 66.3579 348.14 74.8263 339.649C83.2948 331.158 83.2947 322.667 91.7632 322.667C91.7632 322.667 91.7631 322.667 100.232 314.175C100.232 314.175 100.232 314.175 100.232 305.684C83.2947 331.158 66.3579 348.14 57.8895 365.123C57.8895 356.632 66.3579 348.14 74.8263 339.649Z" fill="white"/>
<path d="M74.8264 339.649C74.8264 348.14 66.3579 356.632 66.3579 356.632C74.8263 348.14 74.8264 339.649 83.2948 331.158C83.2948 322.667 91.7632 322.667 91.7632 314.175L100.232 305.684C91.7632 305.684 91.7632 305.684 91.7632 314.175C91.7632 322.667 83.2948 322.667 83.2948 331.158C74.8264 339.649 66.3579 348.14 66.3579 356.632C66.3579 356.632 74.8264 348.14 74.8264 339.649Z" fill="white"/>
<path d="M83.2948 339.649C83.2948 339.649 83.2948 348.14 83.2948 339.649C74.8264 348.14 74.8264 348.14 83.2948 339.649C74.8264 348.14 83.2948 339.649 83.2948 339.649C91.7632 322.667 100.232 322.667 108.7 314.175C91.7632 322.667 83.2948 339.649 83.2948 339.649C74.8264 348.14 74.8264 348.14 83.2948 339.649C83.2948 348.14 83.2948 339.649 83.2948 339.649Z" fill="white"/>
<path d="M74.8263 356.632C91.7631 339.649 100.232 322.667 117.168 305.684C100.232 322.667 83.2947 339.649 74.8263 356.632Z" fill="white"/>
<path d="M91.7632 339.649L83.2947 348.14C100.232 339.649 117.168 322.667 134.105 305.684C117.168 314.175 100.232 339.649 83.2947 356.632C83.2947 348.14 91.7632 348.14 91.7632 339.649Z" fill="white"/>
<path d="M108.7 331.158C100.232 339.649 100.232 339.649 91.7632 348.14C100.232 339.649 108.7 322.667 117.168 314.175C125.637 314.175 134.105 305.684 134.105 297.193C142.574 288.702 142.574 288.702 151.042 280.211C142.574 288.702 142.574 297.193 134.105 297.193C134.105 305.684 125.637 314.175 117.168 314.175C108.7 322.667 100.232 339.649 91.7632 348.14C100.232 348.14 100.232 339.649 108.7 331.158Z" fill="white"/>
<path d="M134.105 314.175C125.637 322.667 117.168 331.158 108.7 339.649C117.168 331.158 125.637 314.175 134.105 314.175C142.574 305.684 151.042 297.193 151.042 297.193L159.511 288.702C159.511 288.702 167.979 280.211 167.979 288.702C167.979 288.702 159.511 288.702 159.511 297.193C151.042 288.702 142.574 297.193 142.574 305.684C125.637 314.175 117.168 322.667 108.7 339.649C117.168 331.158 125.637 322.667 134.105 314.175Z" fill="white"/>
<path d="M151.042 305.684C142.574 314.175 134.105 322.667 125.637 331.158C142.574 314.175 159.511 297.193 176.447 280.211C167.979 297.193 151.042 305.684 134.105 314.175C151.042 297.193 167.979 280.211 184.916 271.719C176.447 288.702 167.979 297.193 151.042 305.684C159.511 314.175 159.511 314.175 159.511 314.175C176.447 297.193 193.384 280.211 218.789 263.228C193.384 271.719 176.447 288.702 151.042 305.684C159.511 314.175 159.511 314.175 159.511 314.175C167.979 305.684 184.916 288.702 193.384 280.211C167.979 288.702 151.042 305.684 134.105 314.175C151.042 305.684 159.511 288.702 167.979 271.719C159.511 288.702 142.574 305.684 125.637 331.158C134.105 322.667 142.574 314.175 151.042 305.684Z" fill="white"/>
<path d="M193.384 280.211L184.916 288.702C193.384 280.211 210.321 271.719 218.789 263.228C227.258 254.737 244.195 246.246 252.663 237.754C235.726 246.246 227.258 254.737 210.321 263.228C210.321 271.719 201.853 271.719 193.384 280.211C184.916 288.702 184.916 288.702 193.384 280.211C184.916 288.702 184.916 288.702 184.916 288.702C184.916 288.702 184.916 280.211 193.384 280.211Z" fill="white"/>
<path d="M201.853 280.211C218.79 263.228 235.726 254.737 252.663 246.246C269.6 229.263 286.537 220.772 303.474 203.789C286.537 220.772 269.6 229.263 252.663 246.246C235.726 254.737 218.79 263.228 201.853 280.211Z" fill="white"/>
<path d="M159.511 322.667C176.447 314.175 193.384 314.175 210.321 305.684C193.384 314.175 176.447 314.175 159.511 322.667Z" fill="white"/>
<path d="M176.447 322.667C184.916 314.175 201.853 305.684 218.789 297.193C201.853 305.684 184.916 314.175 176.447 322.667Z" fill="white"/>
<path d="M184.916 314.175C193.384 305.684 201.853 305.684 201.853 305.684C210.321 305.684 218.79 297.193 227.258 297.193C218.79 297.193 210.321 297.193 201.853 305.684C193.384 305.684 184.916 314.175 184.916 314.175C176.447 314.175 176.447 314.175 184.916 314.175Z" fill="white"/>
<path d="M193.384 305.684C184.916 305.684 184.916 305.684 193.384 305.684C184.916 305.684 184.916 305.684 193.384 305.684C201.853 305.684 201.853 297.193 210.321 297.193C218.79 297.193 227.258 288.702 244.195 288.702C227.258 288.702 218.79 288.702 210.321 297.193C201.853 297.193 193.384 305.684 193.384 305.684C184.916 305.684 184.916 305.684 193.384 305.684C184.916 305.684 193.384 305.684 193.384 305.684Z" fill="white"/>
<path d="M210.321 297.193C201.853 297.193 201.853 297.193 193.384 305.684C210.321 297.193 227.258 288.702 244.195 280.211C235.726 280.211 227.258 288.702 210.321 297.193H201.853C201.853 297.193 193.384 297.193 201.853 297.193C201.853 297.193 201.853 297.193 210.321 297.193C201.853 297.193 210.321 297.193 210.321 297.193Z" fill="white"/>
<path d="M210.321 288.702C201.853 288.702 210.321 288.702 210.321 288.702C218.789 288.702 227.258 280.211 227.258 280.211C235.726 280.211 235.726 280.211 244.195 271.719C252.663 271.719 252.663 263.228 261.132 263.228C252.663 263.228 244.195 271.719 235.726 271.719C218.789 280.211 210.321 288.702 210.321 288.702C201.853 288.702 201.853 288.702 210.321 288.702Z" fill="white"/>
<path d="M244.195 271.719H235.726C235.726 271.719 235.726 271.719 227.258 271.719C227.258 280.211 235.726 271.719 244.195 271.719C235.726 271.719 235.726 271.719 244.195 271.719C252.663 263.228 261.132 263.228 278.068 254.737C269.6 254.737 261.132 263.228 252.663 263.228C244.195 263.228 235.726 271.719 227.258 271.719C227.258 271.719 235.726 271.719 244.195 271.719Z" fill="white"/>
<path d="M244.195 263.228C252.663 263.228 261.132 263.228 261.132 254.737C269.6 254.737 278.069 254.737 286.537 246.246C278.069 246.246 269.6 254.737 261.132 254.737C252.663 263.228 244.195 263.228 244.195 263.228C235.726 263.228 235.726 263.228 244.195 263.228Z" fill="white"/>
<path d="M261.132 254.737C252.663 254.737 252.663 254.737 252.663 254.737H261.132C269.6 246.246 278.068 246.246 286.537 237.754C278.068 237.754 278.068 237.754 269.6 246.246C269.6 246.246 269.6 246.246 261.132 254.737C269.6 246.246 261.132 246.246 261.132 254.737C261.132 246.246 269.6 246.246 261.132 254.737C278.068 246.246 286.537 237.754 295.005 237.754C286.537 237.754 278.068 237.754 261.132 254.737C261.132 246.246 261.132 246.246 261.132 254.737C269.6 246.246 278.068 246.246 286.537 237.754C278.068 246.246 261.132 254.737 252.663 254.737H261.132Z" fill="white"/>
<path d="M295.005 229.263C286.537 229.263 286.537 229.263 278.068 229.263C286.537 229.263 286.537 229.263 295.005 229.263C295.005 229.263 303.474 220.772 311.942 212.281C303.474 212.281 303.474 212.281 295.005 212.281C303.474 212.281 311.942 203.789 320.411 203.789C328.879 203.789 328.879 195.298 328.879 186.807C328.879 195.298 320.411 195.298 311.942 203.789C311.942 212.281 311.942 212.281 303.474 212.281C311.942 212.281 311.942 212.281 320.411 212.281C303.474 220.772 295.005 229.263 278.068 229.263C286.537 229.263 295.005 229.263 295.005 229.263Z" fill="white"/>
<path d="M167.979 348.14C176.447 348.14 193.384 339.649 201.853 331.158C184.916 339.649 176.447 348.14 167.979 348.14Z" fill="white"/>
<path d="M167.979 348.14C167.979 348.14 159.511 348.14 159.511 356.632C176.447 348.14 184.916 348.14 193.384 339.649C184.916 348.14 184.916 348.14 167.979 348.14C167.979 348.14 167.979 356.632 167.979 348.14C167.979 356.632 159.511 356.632 167.979 348.14C159.511 356.632 167.979 356.632 167.979 348.14C167.979 356.632 167.979 348.14 167.979 348.14Z" fill="white"/>
<path d="M371.221 161.333C371.221 161.333 379.689 152.842 371.221 161.333C379.689 161.333 371.221 161.333 371.221 161.333C371.221 161.333 379.689 161.333 371.221 161.333C379.689 161.333 379.689 152.842 371.221 161.333C379.689 152.842 379.689 152.842 371.221 161.333C379.689 161.333 379.689 161.333 371.221 161.333C379.689 161.333 379.689 161.333 371.221 161.333C379.689 161.333 379.689 161.333 371.221 161.333C379.689 161.333 379.689 152.842 379.689 152.842C379.689 152.842 379.689 152.842 379.689 161.333C379.689 161.333 379.689 161.333 371.221 161.333C379.689 161.333 379.689 161.333 371.221 161.333C379.689 161.333 388.158 152.842 388.158 152.842V161.333C388.158 161.333 388.158 161.333 388.158 169.825C388.158 161.333 388.158 152.842 396.626 152.842C396.626 161.333 396.626 161.333 388.158 169.825C388.158 161.333 396.626 161.333 396.626 152.842C396.626 152.842 396.626 161.333 388.158 169.825C388.158 161.333 396.626 152.842 405.095 144.351C405.095 152.842 396.626 161.333 396.626 169.825C396.626 161.333 405.095 152.842 413.563 144.351C405.095 152.842 405.095 161.333 396.626 169.825C405.095 161.333 413.563 144.351 413.563 135.86C413.563 152.842 405.095 161.333 405.095 178.316C413.563 169.825 422.032 152.842 422.032 144.351C422.032 152.842 413.563 169.825 405.095 178.316C413.563 161.333 422.032 152.842 430.5 135.86C430.5 144.351 422.032 161.333 413.563 178.316C422.032 161.333 430.5 152.842 438.968 135.86C430.5 152.842 422.032 169.825 413.563 178.316C422.032 161.333 430.5 144.351 447.437 127.368C438.968 144.351 430.5 161.333 422.032 178.316C430.5 169.825 438.968 161.333 438.968 152.842C447.437 144.351 447.437 135.86 455.905 127.368C447.437 144.351 438.968 161.333 430.5 186.807C447.437 161.333 455.905 135.86 472.842 118.877C464.374 135.86 447.437 161.333 447.437 178.316C447.437 161.333 464.374 144.351 472.842 127.368C472.842 118.877 481.311 118.877 481.311 110.386C481.311 110.386 481.311 118.877 472.842 118.877C472.842 127.368 472.842 135.86 464.374 144.351C455.905 161.333 455.905 169.825 455.905 178.316C464.374 152.842 472.842 135.86 489.779 110.386C489.779 101.895 498.247 101.895 498.247 93.4035C498.247 93.4035 498.247 101.895 489.779 101.895C481.311 127.368 472.842 135.86 472.842 144.351C464.374 161.333 455.905 169.825 455.905 186.807C455.905 169.825 464.374 152.842 472.842 144.351C481.311 127.368 489.779 118.877 498.247 101.895C481.311 118.877 472.842 135.86 464.374 152.842C464.374 161.333 455.905 161.333 455.905 169.825C455.905 169.825 455.905 169.825 455.905 178.316C455.905 169.825 464.374 161.333 472.842 144.351C481.311 135.86 481.311 118.877 489.779 110.386C472.842 118.877 464.374 135.86 455.905 161.333C455.905 169.825 455.905 169.825 447.437 178.316V186.807C447.437 178.316 455.905 169.825 455.905 152.842C464.374 135.86 464.374 127.368 472.842 118.877C455.905 135.86 438.968 161.333 430.5 186.807C438.968 169.825 447.437 144.351 455.905 127.368C455.905 127.368 447.437 135.86 438.968 144.351C438.968 161.333 430.5 169.825 422.032 178.316C430.5 161.333 438.968 144.351 447.437 127.368C430.5 144.351 422.032 161.333 413.563 178.316C422.032 169.825 430.5 152.842 438.968 135.86C430.5 144.351 422.032 161.333 413.563 178.316C422.032 161.333 430.5 152.842 438.968 135.86C422.032 144.351 413.563 161.333 413.563 178.316C422.032 169.825 422.032 152.842 430.5 144.351C413.563 152.842 413.563 161.333 405.095 178.316C413.563 169.825 413.563 152.842 422.032 144.351C413.563 152.842 405.095 161.333 396.626 169.825C405.095 161.333 405.095 152.842 413.563 144.351C405.095 152.842 396.626 161.333 396.626 169.825C396.626 161.333 405.095 152.842 405.095 144.351C405.095 152.842 396.626 152.842 396.626 161.333C396.626 161.333 396.626 161.333 396.626 152.842C396.626 152.842 396.626 144.351 405.095 144.351C396.626 152.842 388.158 161.333 388.158 161.333C388.158 152.842 396.626 152.842 396.626 144.351C388.158 152.842 388.158 161.333 388.158 169.825V161.333C388.158 152.842 379.689 161.333 371.221 161.333C379.689 161.333 388.158 152.842 388.158 152.842C379.689 152.842 379.689 161.333 371.221 161.333C379.689 161.333 379.689 161.333 371.221 161.333C379.689 161.333 379.689 152.842 379.689 152.842L371.221 161.333C371.221 161.333 379.689 152.842 371.221 161.333C379.689 152.842 379.689 152.842 371.221 161.333Z" fill="white"/>
<path d="M371.221 161.333C379.689 161.333 388.158 152.842 396.626 152.842C405.095 152.842 413.563 144.351 422.032 144.351C413.563 144.351 405.095 152.842 396.626 152.842C388.158 152.842 379.689 161.333 371.221 161.333Z" fill="white"/>
<path d="M371.221 161.333C379.689 161.333 388.158 152.842 396.626 152.842C405.095 152.842 413.563 144.351 422.032 144.351C413.563 144.351 405.095 152.842 396.626 152.842C388.158 152.842 379.689 152.842 371.221 161.333Z" fill="white"/>
<path d="M371.221 161.333C388.158 152.842 413.563 144.351 430.5 135.86C413.563 144.351 388.158 152.842 371.221 161.333Z" fill="white"/>
<path d="M-35.2631 297.193C-43.7316 305.684 -60.6684 314.175 -69.1368 331.158C-52.2 314.175 -43.7316 305.684 -35.2631 297.193C-18.3263 288.702 -18.3263 280.211 -9.85787 280.211L-1.38946 271.719L7.07896 263.228C7.07896 263.228 -1.38946 263.228 -1.38946 271.719L-9.85787 280.211C-9.85787 280.211 -18.3263 288.702 -35.2631 297.193C-43.7316 305.684 -52.2 314.175 -69.1368 331.158C-60.6684 314.175 -43.7316 305.684 -35.2631 297.193Z" fill="white"/>
<path d="M-18.3264 297.193C-35.2632 305.684 -43.7316 314.175 -52.2 322.667C-26.7948 305.684 -1.3895 280.21 32.4842 263.228C-1.3895 288.702 -18.3263 305.684 -43.7316 322.667C-18.3263 297.193 15.5473 280.211 49.421 254.737C24.0157 271.719 -1.38953 288.702 -18.3264 305.684C7.0789 288.702 32.4842 271.719 57.8894 254.737C40.9526 271.719 24.0158 280.211 -1.3895 297.193C15.5473 288.702 40.9526 271.719 57.8894 263.228C49.421 271.719 32.4842 280.211 24.0157 288.702C40.9526 280.211 49.421 271.719 66.3578 263.228C49.421 271.719 40.9526 280.211 24.0157 288.702C32.4842 280.211 49.421 271.719 57.8894 263.228C40.9526 271.719 24.0158 280.211 -1.3895 297.193C24.0158 280.211 40.9526 271.719 57.8894 254.737C32.4842 271.719 7.0789 288.702 -18.3264 305.684C-1.38953 288.702 24.0157 271.719 49.421 254.737C15.5473 280.211 -18.3263 297.193 -43.7316 322.667C-18.3263 305.684 7.0789 288.702 24.0157 271.719C-1.38953 288.702 -26.7948 314.175 -60.6685 331.158C-43.7316 314.175 -26.7948 305.684 -18.3264 297.193Z" fill="white"/>
<path d="M49.421 280.211C49.421 280.211 40.9526 280.211 49.421 280.211C40.9526 280.211 40.9526 280.211 49.421 280.211C49.421 280.211 49.421 271.719 57.8894 271.719C66.3579 271.719 66.3579 263.228 74.8263 263.228C66.3579 263.228 49.421 271.719 49.421 280.211C40.9526 280.211 40.9526 280.211 49.421 280.211C40.9526 280.211 49.421 280.211 49.421 280.211Z" fill="white"/>
<path d="M57.8895 271.719C57.8895 280.211 49.4211 280.211 40.9526 288.702C57.8895 280.211 66.3579 271.719 83.2947 263.228C74.8263 271.719 57.8895 280.211 49.4211 288.702C57.8895 280.211 66.3579 280.211 74.8263 271.719L83.2947 263.228C83.2947 263.228 83.2947 263.228 91.7632 263.228C91.7632 263.228 100.232 254.737 100.232 263.228H91.7632C91.7632 263.228 83.2947 263.228 83.2947 271.719C66.3579 271.719 57.8895 280.211 49.4211 288.702C66.3579 280.211 74.8263 271.719 91.7632 254.737C66.3579 271.719 57.8895 280.211 40.9526 288.702C49.4211 280.211 57.8895 280.211 57.8895 271.719Z" fill="white"/>
<path d="M57.8895 288.702C57.8895 288.702 49.4211 297.193 40.9526 297.193C49.4211 288.702 66.3579 288.702 74.8263 280.21C83.2948 271.719 91.7631 263.228 108.7 254.737C91.7631 263.228 83.2948 271.719 74.8263 280.21C66.3579 288.702 49.4211 288.702 40.9526 297.193C49.4211 297.193 57.8895 288.702 57.8895 288.702Z" fill="white"/>
<path d="M83.2947 271.719C74.8263 280.211 57.8894 288.702 49.421 297.193C74.8263 288.702 100.232 271.719 125.637 254.737C108.7 263.228 83.2947 280.211 66.3578 288.702C83.2947 280.211 108.7 271.719 125.637 254.737C108.7 263.228 91.7631 280.211 74.8263 288.702C100.232 280.211 125.637 263.228 142.574 254.737C125.637 263.228 108.7 271.719 91.7631 280.21C117.168 271.719 134.105 263.228 151.042 254.737C134.105 263.228 125.637 271.719 108.7 280.21C125.637 271.719 142.574 263.228 151.042 254.737C142.574 263.228 134.105 271.719 125.637 271.719C134.105 271.719 151.042 263.228 159.511 263.228C151.042 263.228 134.105 271.719 125.637 271.719C134.105 271.719 142.574 263.228 151.042 254.737C142.574 263.228 125.637 271.719 108.7 280.21C125.637 271.719 134.105 263.228 151.042 254.737C134.105 263.228 117.168 271.719 91.7631 280.21C108.7 271.719 125.637 263.228 142.574 254.737C117.168 263.228 100.232 280.211 74.8263 288.702C91.7631 280.211 108.7 263.228 125.637 254.737C108.7 263.228 83.2947 280.211 66.3578 288.702C83.2947 280.211 108.7 263.228 125.637 254.737C100.232 271.719 74.8263 280.211 49.421 297.193C57.8894 288.702 74.8263 280.211 83.2947 271.719Z" fill="white"/>
<path d="M134.105 280.211C159.51 254.737 193.384 237.754 227.258 212.281C193.384 237.754 159.51 254.737 134.105 280.211Z" fill="white"/>
<path d="M134.105 271.719C134.105 271.719 142.574 271.719 134.105 271.719C142.574 263.228 142.574 263.228 151.042 263.228C159.51 254.737 167.979 254.737 176.447 246.246C184.916 237.754 201.853 229.263 218.789 220.772C227.258 212.281 235.726 212.281 244.195 203.789C210.321 220.772 184.916 237.754 159.511 254.737C151.042 263.228 142.574 271.719 134.105 271.719Z" fill="white"/>
<path d="M117.168 280.211L100.232 288.702C100.232 288.702 108.7 280.211 117.168 280.211C108.7 280.211 108.7 280.211 117.168 280.211C125.637 271.719 134.105 271.719 142.574 263.228C159.511 254.737 176.447 237.754 193.384 229.263C201.853 220.772 210.321 220.772 227.258 212.281C184.916 229.263 159.511 246.246 125.637 271.719C117.168 271.719 108.7 280.211 100.232 288.702C100.232 280.211 108.7 280.211 117.168 280.211Z" fill="white"/>
<path d="M91.7632 280.211C91.7632 288.702 91.7632 288.702 91.7632 280.211C83.2948 288.702 83.2948 288.702 91.7632 280.211C83.2948 288.702 83.2948 288.702 91.7632 280.211C83.2948 288.702 91.7632 280.211 91.7632 280.211C91.7632 271.719 100.232 271.719 100.232 271.719C108.7 271.719 117.168 263.228 125.637 254.737C142.574 246.246 159.511 237.754 176.447 229.263C184.916 220.772 193.384 220.772 201.853 212.281C167.979 229.263 142.574 246.246 108.7 271.719C100.232 271.719 91.7632 280.211 91.7632 280.211C83.2948 288.702 83.2948 288.702 91.7632 280.211C83.2948 288.702 91.7632 288.702 91.7632 280.211Z" fill="white"/>
<path d="M91.7631 280.211C83.2947 280.211 83.2947 280.211 91.7631 280.211C83.2947 288.702 83.2947 288.702 91.7631 280.211C74.8263 288.702 74.8263 288.702 91.7631 280.211C83.2947 280.211 83.2947 280.211 91.7631 280.211C100.232 271.719 108.7 263.228 117.168 263.228C134.105 254.737 151.042 246.246 167.979 229.263C176.447 220.772 184.916 220.772 193.384 212.281C167.979 220.772 159.51 229.263 142.574 237.754C125.637 246.246 117.168 263.228 100.232 271.719C91.7631 271.719 83.2947 280.211 74.8263 288.702C83.2947 288.702 83.2947 280.211 91.7631 280.211Z" fill="white"/>
<path d="M91.7632 271.719C83.2948 271.719 83.2948 280.211 74.8264 280.211C74.8264 280.211 74.8263 280.211 66.3579 280.211C66.3579 280.211 66.3579 280.211 74.8264 280.211C74.8264 280.211 74.8264 280.211 83.2948 271.719C91.7632 271.719 91.7632 271.719 91.7632 271.719C108.7 254.737 125.637 246.246 142.574 237.754C151.042 229.263 159.511 229.263 167.979 220.772C151.042 229.263 134.105 237.754 117.168 246.246C100.232 263.228 83.2948 271.719 74.8264 280.211C83.2948 280.211 91.7632 271.719 91.7632 271.719C100.232 271.719 100.232 271.719 91.7632 271.719Z" fill="white"/>
<path d="M91.7632 263.228L83.2948 271.719C83.2948 271.719 83.2948 271.719 74.8264 271.719L83.2948 263.228C83.2948 271.719 91.7632 263.228 91.7632 263.228C108.7 254.737 125.637 246.246 134.105 237.754C142.574 229.263 151.042 229.263 159.511 220.772C151.042 229.263 134.105 237.754 117.168 246.246C100.232 254.737 83.2948 271.719 66.3579 280.211C74.8263 280.211 83.2948 271.719 91.7632 263.228Z" fill="white"/>
<path d="M83.2948 271.719C74.8264 271.719 74.8263 280.211 66.3579 280.211C91.7632 254.737 117.168 237.754 151.042 220.772C117.168 237.754 91.7632 254.737 66.3579 280.211C74.8263 271.719 74.8264 271.719 83.2948 271.719Z" fill="white"/>
<path d="M74.8263 263.228C66.3579 263.228 66.3579 271.719 57.8895 271.719C66.3579 271.719 66.3579 263.228 74.8263 263.228C74.8263 254.737 83.2947 254.737 91.7632 246.246C83.2947 254.737 74.8263 263.228 57.8895 271.719C66.3579 271.719 74.8263 271.719 74.8263 263.228Z" fill="white"/>
<path d="M66.3579 263.228L57.8895 271.719C57.8895 271.719 66.3579 263.228 66.3579 263.228C74.8263 263.228 83.2947 254.737 83.2947 254.737C74.8263 263.228 66.3579 263.228 57.8895 271.719C57.8895 271.719 66.3579 271.719 66.3579 263.228Z" fill="white"/>
<path d="M66.3579 339.649C91.7632 314.175 125.637 288.702 159.511 263.228C125.637 288.702 100.232 314.175 66.3579 339.649Z" fill="white"/>
<path d="M66.3579 348.14C66.3579 348.14 57.8895 348.14 66.3579 348.14C57.8895 348.14 66.3579 348.14 66.3579 348.14C66.3579 339.649 66.3579 339.649 74.8264 331.158C83.2948 322.667 91.7632 314.175 100.232 314.175C117.168 297.193 134.105 288.702 151.042 280.21C151.042 271.719 159.511 263.228 176.447 254.737C142.574 271.719 108.7 297.193 83.2948 322.667C74.8264 331.158 66.3579 339.649 66.3579 348.14C57.8895 348.14 57.8895 348.14 66.3579 348.14Z" fill="white"/>
<path d="M57.8895 348.14C57.8895 348.14 49.4211 348.14 57.8895 348.14C49.4211 348.14 57.8895 348.14 57.8895 348.14C57.8895 339.649 57.8895 339.649 66.3579 339.649C74.8264 331.158 83.2948 322.667 91.7632 314.175C108.7 297.193 125.637 288.702 142.574 271.719C151.042 271.719 159.511 263.228 167.979 254.737C134.105 271.719 100.232 297.193 74.8264 331.158C66.358 339.649 57.8895 348.14 57.8895 348.14C49.4211 356.632 49.4211 356.632 57.8895 348.14C49.4211 348.14 49.4211 348.14 57.8895 348.14Z" fill="white"/>
<path d="M49.421 348.14C49.421 356.632 49.421 356.632 49.421 348.14C74.8263 322.667 108.7 297.193 142.574 280.21C151.042 271.719 167.979 263.228 176.447 254.737C134.105 280.211 100.232 305.684 66.3578 331.158C66.3578 339.649 57.8894 339.649 49.421 348.14C49.421 356.632 49.421 348.14 49.421 348.14C57.8894 348.14 49.421 348.14 49.421 348.14Z" fill="white"/>
<path d="M57.8895 356.632C49.4211 356.632 49.4211 356.632 57.8895 356.632C49.4211 356.632 49.4211 356.632 57.8895 356.632C49.4211 356.632 49.4211 356.632 57.8895 356.632C57.8895 348.14 66.3579 339.649 66.3579 339.649C74.8264 331.158 83.2948 322.667 91.7632 314.175C117.168 305.684 134.105 288.702 151.042 280.21C167.979 271.719 176.447 263.228 184.916 254.737C151.042 280.211 108.7 305.684 74.8264 331.158C66.358 339.649 57.8895 348.14 57.8895 356.632C49.4211 356.632 49.4211 356.632 57.8895 356.632C49.4211 356.632 49.4211 356.632 57.8895 356.632Z" fill="white"/>
<path d="M100.232 331.158C83.2947 339.649 74.8263 348.14 57.8895 356.632L66.3579 348.14C74.8263 339.649 83.2947 339.649 83.2947 331.158C108.7 314.175 125.637 297.193 151.042 280.21C167.979 271.719 176.447 263.228 193.384 254.737C167.979 271.719 151.042 280.211 134.105 297.193C117.168 305.684 100.232 322.667 83.2947 331.158C74.8263 339.649 66.3579 348.14 57.8895 356.632C66.3579 348.14 83.2947 339.649 100.232 331.158Z" fill="white"/>
<path d="M100.232 331.158C91.7631 339.649 74.8263 348.14 66.3579 356.632C66.3579 356.632 66.3579 356.632 57.8895 356.632L66.3579 348.14C66.3579 348.14 74.8263 348.14 74.8263 339.649C100.232 322.667 117.168 305.684 142.574 288.702C159.511 280.211 167.979 271.719 184.916 263.228C167.979 280.211 151.042 288.702 134.105 297.193C117.168 314.175 100.232 322.667 83.2947 339.649C74.8263 348.14 66.3579 356.632 57.8895 365.123C66.3579 348.14 83.2947 339.649 100.232 331.158Z" fill="white"/>
<path d="M100.232 331.158C91.7632 339.649 74.8263 348.14 66.3579 356.632C57.8895 356.632 57.8895 356.632 49.4211 365.123C49.4211 365.123 49.4211 365.123 40.9527 365.123H32.4843C32.4843 365.123 32.4842 365.123 40.9527 365.123C66.3579 348.14 83.2947 331.158 108.7 322.667C125.637 314.175 134.105 305.684 151.042 297.193C159.511 297.193 159.511 288.702 167.979 288.702C167.979 288.702 176.447 288.702 176.447 280.211C176.447 280.211 176.447 280.211 184.916 280.211C159.511 297.193 134.105 314.175 117.168 331.158C91.7632 348.14 66.3579 365.123 40.9527 382.105C74.8263 356.632 117.168 331.158 159.511 305.684C167.979 297.193 184.916 297.193 193.384 288.702C151.042 305.684 117.168 331.158 74.8264 356.632C66.3579 365.123 57.8895 365.123 49.4211 373.614C91.7632 348.14 142.574 314.175 184.916 280.211C193.384 280.211 210.321 271.719 218.789 254.737C176.447 288.702 125.637 322.667 74.8264 356.632C66.3579 356.632 66.3579 365.123 57.8895 365.123C57.8895 365.123 49.4211 365.123 49.4211 373.614C49.4211 373.614 49.4211 373.614 40.9527 373.614C49.4211 365.123 66.3579 356.632 74.8264 348.14C100.232 331.158 125.637 314.175 151.042 297.193C176.447 280.211 210.321 263.228 235.726 246.246C218.789 254.737 201.853 263.228 184.916 271.719C167.979 288.702 151.042 297.193 134.105 305.684C117.168 322.667 100.232 331.158 83.2948 339.649C74.8263 348.14 66.3579 356.632 57.8895 356.632C49.4211 365.123 49.4211 365.123 40.9527 365.123H32.4843C32.4843 365.123 40.9527 365.123 40.9527 356.632C66.3579 356.632 83.2948 339.649 100.232 331.158C100.232 322.667 100.232 322.667 100.232 331.158C83.2948 339.649 57.8895 356.632 40.9527 373.614C91.7632 339.649 142.574 305.684 193.384 271.719C210.321 263.228 218.789 254.737 235.726 246.246C184.916 280.211 134.105 314.175 83.2948 348.14C66.3579 356.632 57.8895 365.123 40.9527 373.614C91.7632 348.14 134.105 314.175 184.916 288.702C193.384 280.211 210.321 271.719 218.789 254.737C184.916 288.702 142.574 314.175 100.232 339.649C91.7632 348.14 83.2947 356.632 66.3579 356.632C57.8895 356.632 57.8895 365.123 49.4211 365.123L40.9527 373.614C40.9527 373.614 49.4211 373.614 49.4211 365.123C74.8263 356.632 100.232 339.649 117.168 331.158C142.574 314.175 167.979 297.193 184.916 288.702C142.574 305.684 100.232 331.158 66.3579 365.123C57.8895 365.123 49.4211 373.614 40.9527 382.105C83.2948 356.632 117.168 331.158 151.042 305.684C159.511 297.193 167.979 288.702 184.916 280.211C142.574 297.193 108.7 322.667 66.3579 348.14C57.8895 356.632 49.4211 365.123 40.9527 373.614C57.8895 356.632 83.2948 339.649 100.232 331.158Z" fill="white"/>
<path d="M57.8895 356.632C49.421 365.123 49.4211 365.123 40.9526 373.614H32.4842C32.4842 373.614 32.4842 373.614 40.9526 373.614C49.4211 365.123 57.8895 356.632 66.3579 348.14C74.8263 339.649 83.2947 339.649 83.2947 331.158C83.2947 331.158 91.7632 331.158 91.7632 322.667C91.7632 322.667 100.232 322.667 91.7632 322.667L83.2947 331.158L74.8263 339.649C74.8263 339.649 74.8263 339.649 66.3579 348.14C49.421 356.632 40.9526 365.123 24.0158 373.614C40.9526 356.632 57.8895 339.649 83.2947 331.158C57.8895 348.14 32.4842 373.614 7.07895 390.596C32.4842 373.614 49.4211 348.14 74.8263 331.158C57.8895 348.14 32.4842 365.123 15.5474 382.105C32.4842 365.123 40.9526 356.632 57.8895 339.649C40.9526 365.123 15.5474 382.105 -1.38947 399.088C15.5474 382.105 32.4842 365.123 57.8895 348.14C57.8895 339.649 66.3579 339.649 66.3579 339.649C66.3579 339.649 74.8263 339.649 74.8263 331.158C66.3579 348.14 57.8895 356.632 40.9526 365.123C32.4842 373.614 15.5474 382.105 7.07895 390.596C40.9526 365.123 74.8263 339.649 108.7 322.667C66.3579 339.649 40.9526 365.123 7.07895 390.596C24.0158 382.105 32.4842 373.614 49.4211 365.123C57.8895 356.632 66.3579 356.632 66.3579 348.14C74.8263 339.649 74.8263 339.649 74.8263 339.649C74.8263 339.649 74.8263 339.649 74.8263 331.158C49.4211 348.14 24.0158 373.614 -1.38947 399.088C15.5474 382.105 40.9526 365.123 57.8895 339.649C40.9526 356.632 32.4842 365.123 15.5474 382.105C32.4842 365.123 57.8895 356.632 74.8263 339.649C49.4211 348.14 24.0158 373.614 7.07895 390.596C32.4842 373.614 57.8895 348.14 74.8263 331.158C57.8895 348.14 40.9526 356.632 24.0158 373.614C49.421 356.632 74.8263 339.649 100.232 322.667C74.8263 339.649 49.4211 356.632 32.4842 382.105C40.9526 373.614 49.421 365.123 57.8895 356.632Z" fill="white"/>
<path d="M83.2947 373.614C125.637 356.632 159.511 348.14 201.853 331.158C159.511 339.649 125.637 356.632 83.2947 373.614Z" fill="white"/>
<path d="M125.637 348.14C151.042 348.14 167.979 339.649 184.916 331.158C167.979 339.649 151.042 339.649 125.637 348.14Z" fill="white"/>
<path d="M100.232 365.123C134.105 348.14 176.447 331.158 210.321 322.667C167.979 331.158 134.105 348.14 100.232 365.123Z" fill="white"/>
<path d="M125.637 348.14C142.574 339.649 151.042 339.649 167.979 331.158C184.916 322.667 193.384 322.667 210.321 314.175C193.384 322.667 184.916 322.667 167.979 331.158C151.042 339.649 142.574 339.649 125.637 348.14Z" fill="white"/>
<path d="M159.511 331.158C159.511 331.158 151.042 331.158 159.511 331.158C167.979 331.158 167.979 322.667 176.447 322.667C184.916 322.667 193.384 314.175 193.384 314.175C201.853 314.175 218.789 305.684 235.726 305.684C218.789 305.684 201.853 314.175 193.384 314.175C176.447 322.667 167.979 331.158 159.511 331.158C151.042 331.158 151.042 331.158 159.511 331.158C151.042 331.158 159.511 331.158 159.511 331.158Z" fill="white"/>
</svg>
