<svg width="75" height="27" viewBox="0 0 75 27" fill="none" xmlns="http://www.w3.org/2000/svg">
<g clip-path="url(#clip0_131_5930)">
<path fill-rule="evenodd" clip-rule="evenodd" d="M44.6385 13.953C44.6385 13.953 45.9036 11.4161 51.506 10.5101C57.1084 9.60403 67.5903 5.79866 69.0361 4.349C70.4819 2.71813 74.0964 0.724838 74.6385 0.181213C75.1807 -0.543619 75.5421 2.1745 73.1927 4.16779C70.8434 6.16108 68.1325 8.33558 67.0482 9.78524C65.9638 11.2349 61.265 16.1275 55.1205 16.4899C48.9759 16.8524 46.0843 17.2148 46.0843 17.9396C46.0843 18.6644 46.8072 19.9329 48.0723 20.1141C49.3373 20.2953 52.9518 20.2953 52.9518 21.0201C52.9518 21.745 48.9759 27.1812 44.6385 27C40.3012 26.8188 36.6867 23.9195 36.3253 23.1946C35.9638 22.4698 39.3976 23.0134 39.3976 21.745C39.2168 18.4832 26.9277 15.2215 24.759 14.6779C22.4096 14.1342 16.9879 11.2349 15.1807 11.0537C13.3735 11.0537 0.180703 5.07383 -0.180743 3.80537C-0.361466 2.89933 1.98793 4.349 4.15661 5.25504C6.32528 6.16108 13.3735 8.51678 16.4458 8.33558C19.5181 8.15437 23.6747 8.33558 25.4819 8.69799C27.2891 9.06041 31.9879 11.9597 33.9759 12.8658C35.9638 14.1342 37.0482 14.4967 37.0482 14.4967C37.0482 14.4967 38.8554 13.4094 40.1205 13.2282C41.5662 13.047 44.6385 13.953 44.6385 13.953Z" fill="white"/>
</g>
<defs>
<clipPath id="clip0_131_5930">
<rect width="75" height="27" fill="white"/>
</clipPath>
</defs>
</svg>
