<svg width="21" height="17" viewBox="0 0 21 17" fill="none" xmlns="http://www.w3.org/2000/svg">
<path d="M18.0993 9.18717H17.9604V8.51652C18.2901 8.33484 18.5135 8.00036 18.5135 7.6124C18.5135 3.41527 14.9189 0 10.5 0C6.08151 0 2.48649 3.41527 2.48649 7.61282C2.48649 8.00079 2.70989 8.33527 3.03919 8.51736V9.18802H2.90068C1.30155 9.18802 0 10.6007 0 12.3367V13.3881C0 15.125 1.30155 16.5377 2.90113 16.5377H4.1924L4.30679 16.6463C4.41447 16.7486 4.55611 16.8 4.6973 16.8C4.83894 16.8 4.98057 16.7486 5.08826 16.6463C5.2156 16.5254 5.25894 16.3607 5.2357 16.2032C5.33132 16.075 5.38851 15.9192 5.38851 15.7503V9.97456C5.38851 9.53948 5.01721 9.18717 4.55968 9.18717H4.14504V8.51652C4.47389 8.33484 4.6973 8.00036 4.6973 7.6124C4.6973 4.57279 7.3004 2.09984 10.5 2.09984C13.6996 2.09984 16.3023 4.57279 16.3023 7.6124C16.3023 8.00036 16.5257 8.33484 16.8545 8.51652V9.18717H16.4399C15.9828 9.18717 15.611 9.53948 15.611 9.97456V15.7494C15.611 15.918 15.6687 16.0746 15.7639 16.2019C15.7411 16.3594 15.7844 16.5237 15.9113 16.6451C16.0194 16.7474 16.1611 16.7987 16.3023 16.7987C16.4434 16.7987 16.5855 16.7474 16.6932 16.6451L16.8076 16.5364H18.0989C19.6984 16.5364 21 15.1238 21 13.3869V12.3359C21.0004 10.6007 19.6989 9.18717 18.0993 9.18717Z" fill="#C8C7CC"/>
</svg>
