<svg width="20" height="20" viewBox="0 0 20 20" fill="none" xmlns="http://www.w3.org/2000/svg">
<path d="M12.5 13.3325V11.6658C12.875 11.48 13.9475 10.2033 14.06 9.20583C14.355 9.18333 14.8183 8.9125 14.955 7.84333C15.0283 7.26917 14.7367 6.94667 14.56 6.845C14.56 6.845 15 6.00917 15 5C15 2.97667 14.2058 1.25 12.5 1.25C12.5 1.25 11.9075 0 10 0C6.465 0 5 2.2675 5 5C5 5.92 5.44 6.845 5.44 6.845C5.26333 6.94667 4.97167 7.27 5.045 7.84333C5.18167 8.9125 5.645 9.18333 5.94 9.20583C6.0525 10.2033 7.125 11.48 7.5 11.6658V13.3325C6.66667 15.8325 0 14.1658 0 19.9992H20C20 14.1658 13.3333 15.8325 12.5 13.3325Z" fill="#C8C7CC"/>
</svg>
