<svg width="22" height="19" viewBox="0 0 22 19" fill="none" xmlns="http://www.w3.org/2000/svg">
<path fill-rule="evenodd" clip-rule="evenodd" d="M8.98372 18.8594C7.57336 17.7567 5.18817 16.6336 1.2556 16.4348C0.552639 16.4009 0 15.8021 0 15.0835V1.35586C0 0.574035 0.641061 -0.0428599 1.4037 0.00233383C5.93755 0.259916 8.38243 1.75583 9.64465 2.99414C9.90329 3.24725 10.0492 3.59973 10.0492 3.96809V18.3194C10.0492 18.882 9.41918 19.2006 8.98372 18.8594ZM20.3106 0.00233573C21.0733 -0.0406209 21.7143 0.576274 21.7143 1.35587H21.7143V15.0812C21.7143 15.8021 21.1617 16.3986 20.4565 16.4348C16.5239 16.6336 14.1387 17.759 12.7284 18.8594C12.2907 19.1984 11.6629 18.8798 11.6629 18.3194V3.96809C11.6629 3.602 11.8088 3.24949 12.0675 2.99414C13.3297 1.75583 15.7746 0.259918 20.3106 0.00233573Z" fill="#C8C7CC"/>
</svg>
