<svg width="28" height="15" viewBox="0 0 28 15" fill="none" xmlns="http://www.w3.org/2000/svg">
<path d="M11.9871 7.44853C12.3626 7.11838 12.3626 7.11833 12.3625 7.11827L12.3624 7.11811L12.362 7.11761L12.3605 7.11594L12.3552 7.10993L12.3354 7.08765C12.3182 7.06838 12.2931 7.04043 12.261 7.00495C12.1967 6.93401 12.104 6.83281 11.9889 6.71043C11.759 6.46605 11.4383 6.13542 11.0759 5.79186C10.7147 5.44937 10.3058 5.08794 9.89984 4.78523C9.50701 4.49228 9.07759 4.22398 8.67513 4.10287C8.3172 3.98284 7.98193 3.95902 7.7374 3.9476L7.72573 3.94705H7.71406H7.71388H7.71371H7.71353H7.71335H7.71318H7.713H7.71283H7.71265H7.71248H7.7123H7.71213H7.71195H7.71178H7.71161H7.71143H7.71126H7.71108H7.71091H7.71073H7.71056H7.71039H7.71021H7.71004H7.70986H7.70969H7.70952H7.70934H7.70917H7.709H7.70882H7.70865H7.70848H7.7083H7.70813H7.70796H7.70779H7.70761H7.70744H7.70727H7.7071H7.70692H7.70675H7.70658H7.70641H7.70624H7.70606H7.70589H7.70572H7.70555H7.70538H7.70521H7.70504H7.70486H7.70469H7.70452H7.70435H7.70418H7.70401H7.70384H7.70367H7.7035H7.70333H7.70316H7.70299H7.70282H7.70265H7.70248H7.70231H7.70214H7.70197H7.7018H7.70163H7.70146H7.70129H7.70112H7.70095H7.70078H7.70061H7.70044H7.70027H7.70011H7.69994H7.69977H7.6996H7.69943H7.69926H7.69909H7.69893H7.69876H7.69859H7.69842H7.69826H7.69809H7.69792H7.69775H7.69758H7.69742H7.69725H7.69708H7.69692H7.69675H7.69658H7.69641H7.69625H7.69608H7.69591H7.69575H7.69558H7.69541H7.69525H7.69508H7.69492H7.69475H7.69458H7.69442H7.69425H7.69409H7.69392H7.69376H7.69359H7.69342H7.69326H7.69309H7.69293H7.69276H7.6926H7.69243H7.69227H7.6921H7.69194H7.69178H7.69161H7.69145H7.69128H7.69112H7.69095H7.69079H7.69063H7.69046H7.6903H7.69014H7.68997H7.68981H7.68964H7.68948H7.68932H7.68916H7.68899H7.68883H7.68867H7.6885H7.68834H7.68818H7.68802H7.68785H7.68769H7.68753H7.68737H7.6872H7.68704H7.68688H7.68672H7.68656H7.68639H7.68623H7.68607H7.68591H7.68575H7.68559H7.68543H7.68527H7.6851H7.68494H7.68478H7.68462H7.68446H7.6843H7.68414H7.68398H7.68382H7.68366H7.6835H7.68334H7.68318H7.68302H7.68286H7.6827H7.68254H7.68238H7.68222H7.68206H7.6819H7.68174H7.68158H7.68143H7.68127H7.68111H7.68095H7.68079H7.68063H7.68047H7.68031H7.68016H7.68H7.67984H7.67968H7.67952H7.67937H7.67921H7.67905H7.67889H7.67874H7.67858H7.67842H7.67826H7.67811H7.67795H7.67779H7.67763H7.67748H7.67732H7.67716H7.67701H7.67685H7.67669H7.67654H7.67638H7.67623H7.67607H7.67591H7.67576H7.6756H7.67545H7.67529H7.67514H7.67498H7.67482H7.67467H7.67451H7.67436H7.6742H7.67405H7.67389H7.67374H7.67358H7.67343H7.67327H7.67312H7.67297H7.67281H7.67266H7.6725H7.67235H7.6722H7.67204H7.67189H7.67173H7.67158H7.67143H7.67127H7.67112H7.67097H7.67081H7.67066H7.67051H7.67035H7.6702H7.67005H7.6699H7.66974H7.66959H7.66944H7.66929H7.66913H7.66898H7.66883H7.66868H7.66853H7.66837H7.66822H7.66807H7.66792H7.66777H7.66762H7.66747H7.66731H7.66716H7.66701H7.66686H7.66671H7.66656H7.66641H7.66626H7.66611H7.66596H7.66581H7.66566H7.66551H7.66536H7.66521H7.66506H7.66491H7.66476H7.66461H7.66446H7.66431H7.66416H7.66401H7.66386H7.66371H7.66356H7.66341H7.66326H7.66312H7.66297H7.66282H7.66267H7.66252H7.66237H7.66222H7.66208H7.66193H7.66178H7.66163H7.66148H7.66134H7.66119H7.66104H7.66089H7.66075H7.6606H7.66045H7.6603H7.66016H7.66001H7.65986H7.65972H7.65957H7.65942H7.65928H7.65913H7.65898H7.65884H7.65869H7.65854H7.6584H7.65825H7.65811H7.65796H7.65782H7.65767H7.65752H7.65738H7.65723H7.65709H7.65694H7.6568H7.65665H7.65651H7.65636H7.65622H7.65607H7.65593H7.65578H7.65564H7.6555H7.65535H7.65521H7.65506H7.65492H7.65478H7.65463H7.65449H7.65434H7.6542H7.65406H7.65391H7.65377H7.65363H7.65348H7.65334H7.6532H7.65305H7.65291H7.65277H7.65263H7.65248H7.65234H7.6522H7.65206H7.65191H7.65177H7.65163H7.65149H7.65135H7.65121H7.65106H7.65092H7.65078H7.65064H7.6505H7.65036H7.65022H7.65007H7.64993H7.64979H7.64965H7.64951H7.64937H7.64923H7.64909H7.64895H7.64881H7.64867H7.64853H7.64839H7.64825H7.64811H7.64797H7.64783H7.64769H7.64755H7.64741H7.64727H7.64713H7.64699H7.64685H7.64671H7.64657H7.64644H7.6463H7.64616H7.64602H7.64588H7.64574H7.6456H7.64547H7.64533H7.64519H7.64505H7.64491H7.64478H7.64464H7.6445H7.64436H7.64423H7.64409H7.64395H7.64381H7.64368H7.64354H7.6434H7.64327H7.64313H7.64299H7.64286H7.64272H7.64258H7.64245H7.64231H7.64217H7.64204H7.6419H7.64177H7.64163H7.64149H7.64136H7.64122H7.64109H7.64095H7.64082H7.64068H7.64055H7.64041H7.64028H7.64014H7.64001H7.63987H7.63974H7.6396H7.63947H7.63933H7.6392H7.63907H7.63893H7.6388H7.63866H7.63853H7.6384H7.63826H7.63813H7.63799H7.63786H7.63773H7.63759H7.63746H7.63733H7.6372H7.63706H7.63693H7.6368H7.63666H7.63653H7.6364H7.63627H7.63613H7.636H7.63587H7.63574H7.63561H7.63547H7.63534C5.66893 3.94705 4.07671 5.5095 4.07671 7.44853C4.07671 9.38757 5.66893 10.95 7.63534 10.95C7.68174 10.95 7.72559 10.9454 7.76551 10.9387C8.02128 10.9355 8.33846 10.9071 8.67513 10.7942C9.07758 10.6731 9.50701 10.4048 9.89984 10.1118C10.3058 9.80913 10.7147 9.4477 11.0759 9.10521C11.4383 8.76165 11.759 8.43102 11.9889 8.18664C12.104 8.06426 12.1967 7.96306 12.261 7.89212C12.2931 7.85664 12.3182 7.82869 12.3354 7.80942L12.3552 7.78714L12.3605 7.78113L12.362 7.77946L12.3624 7.77896L12.3625 7.7788C12.3626 7.77874 12.3626 7.77869 11.9871 7.44853ZM11.9871 7.44853L12.3626 7.77869L12.6529 7.44853L12.3626 7.11838L11.9871 7.44853ZM7.72733 0.508089L7.74965 0.510522L7.77209 0.510946C8.33375 0.521545 8.97408 0.574418 9.63677 0.794523L9.64365 0.796807L9.65059 0.798891C10.3214 1.0003 11.1462 1.47841 12.0365 2.12922C12.9183 2.77385 13.8299 3.56206 14.6704 4.34866L15.0109 4.66733L15.3525 4.34978C16.1991 3.5627 17.1139 2.77415 17.9961 2.12922C18.8869 1.478 19.7091 0.999889 20.3745 0.798592L20.3745 0.798766L20.3873 0.794523C21.05 0.574418 21.6903 0.521545 22.252 0.510946L22.2745 0.510522L22.2968 0.508089C22.3463 0.502683 22.3957 0.5 22.445 0.5C24.325 0.5 26.0348 1.21926 27.3013 2.39422L24.9039 4.92581C24.2547 4.31642 23.3924 3.96912 22.4787 3.96912C21.1045 3.96912 19.8458 4.76034 19.2819 6.00061L14.6663 10.5192C13.8264 11.3049 12.9163 12.0943 12.036 12.7392C11.1455 13.3915 10.3222 13.8683 9.65382 14.0641L9.642 14.0676L9.63037 14.0716C8.97705 14.2985 8.34587 14.3421 7.77149 14.364C7.69888 14.3643 7.62637 14.368 7.55398 14.375C3.64967 14.3617 0.5 11.2493 0.5 7.4375C0.5 3.61752 3.66319 0.5 7.57912 0.5C7.62837 0.5 7.67775 0.502683 7.72733 0.508089ZM20.3937 14.0716L20.3814 14.0673L20.3689 14.0637C19.4091 13.7856 18.1578 12.9355 16.8895 11.872L19.5242 9.31139C20.1669 10.2857 21.2747 10.8948 22.4787 10.8948C23.3794 10.8948 24.2467 10.5502 24.8928 9.94798L27.3006 12.4814C26.0398 13.6507 24.3399 14.3686 22.4701 14.375C22.3977 14.368 22.3252 14.3643 22.2526 14.364C21.6782 14.3421 21.047 14.2985 20.3937 14.0716Z" fill="black" stroke="black"/>
</svg>
