<svg width="17" height="21" viewBox="0 0 17 21" fill="none" xmlns="http://www.w3.org/2000/svg">
<path fill-rule="evenodd" clip-rule="evenodd" d="M3.36913 5.37959H16.4091C16.7354 5.37959 16.9956 5.63536 17 5.94654V20.1287C17 20.4399 16.7398 20.6957 16.4135 20.6957H3.36913C1.51258 20.6957 0 19.2335 0 17.4389V3.25674C0 1.46212 1.51258 0 3.36913 0H16.4135C16.7354 0 17 0.251502 17 0.566946C17 0.878127 16.7398 1.13389 16.4135 1.13389H3.36913C2.15642 1.13389 1.17302 2.08875 1.17302 3.25674C1.17302 4.429 2.16083 5.37959 3.36913 5.37959ZM3.36923 19.5617H15.8227V6.51765H3.36923C2.53135 6.51765 1.76404 6.21926 1.17312 5.72904V17.4388C1.17312 18.6111 2.16092 19.5617 3.36923 19.5617ZM3.5544 2.7409C3.22807 2.7409 2.96789 2.99666 2.96789 3.30784C2.96789 3.61902 3.23248 3.87479 3.5544 3.87479H14.5702C14.8966 3.87479 15.1567 3.61902 15.1567 3.30784C15.1567 2.99666 14.8921 2.7409 14.5702 2.7409H3.5544ZM11.794 13.2811H11.8554C12.5617 13.2811 13.1364 13.9029 13.1362 14.6664V15.1288C13.1362 15.8929 12.5615 16.5144 11.8552 16.5144H11.285L11.2345 16.5622C11.187 16.6072 11.1242 16.6298 11.0619 16.6298C10.9995 16.6298 10.937 16.6072 10.8892 16.5622C10.8332 16.5088 10.8141 16.4366 10.8241 16.3673C10.7821 16.3113 10.7567 16.2423 10.7567 16.1682V13.6275C10.7567 13.4361 10.9208 13.2811 11.1226 13.2811H11.3057V12.986C11.1605 12.9061 11.0619 12.7589 11.0619 12.5882C11.0619 11.2509 9.91265 10.1629 8.49984 10.1629C7.08703 10.1629 5.9376 11.2509 5.9376 12.5882C5.9376 12.7589 5.83896 12.9061 5.69375 12.986V13.2811H5.87684C6.07887 13.2811 6.24281 13.4361 6.24281 13.6275V16.1686C6.24281 16.2429 6.21756 16.3114 6.17534 16.3678C6.1856 16.4371 6.16646 16.5096 6.11023 16.5628C6.06269 16.6078 6.00015 16.6304 5.9376 16.6304C5.87526 16.6304 5.81272 16.6078 5.76517 16.5628L5.71466 16.515H5.14449C4.43818 16.515 3.86347 15.8935 3.86347 15.1293V14.6667C3.86347 13.9029 4.43818 13.2814 5.14429 13.2814H5.20545V12.9864C5.06005 12.9063 4.9614 12.7591 4.9614 12.5884C4.9614 10.7417 6.54881 9.2391 8.49984 9.2391C10.4511 9.2391 12.0383 10.7417 12.0383 12.5882C12.0383 12.7589 11.9396 12.9061 11.794 12.986V13.2811Z" fill="#C8C7CC"/>
</svg>
