<svg width="109" height="39" viewBox="0 0 109 39" fill="none" xmlns="http://www.w3.org/2000/svg">
<path fill-rule="evenodd" clip-rule="evenodd" d="M44.1731 20.052C44.1731 20.052 42.2386 16.2002 34.1781 14.9162C26.1176 13.6323 10.6415 8.17549 8.70696 5.92858C6.45002 4.00266 1.61373 1.11378 0.646467 0.150815C-0.320792 -0.812147 -0.643212 3.0397 2.90341 5.92858C6.45002 8.81747 10.3191 12.0273 11.9312 14.2742C13.5433 16.5212 20.3141 23.2619 29.3418 23.9039C38.0472 24.2248 42.561 24.8668 42.561 25.8298C42.561 26.7927 41.5938 28.7187 39.6593 29.0397C37.4023 29.0397 32.2436 29.0396 32.2436 30.3236C32.2436 31.6075 38.0472 39.3112 44.1731 38.9902C50.2991 38.6693 55.7803 34.4964 56.1027 33.5335C56.7475 32.5705 51.5888 33.5335 51.5888 31.2866C51.9112 26.4718 69.6443 21.6569 72.8685 21.015C76.4151 20.052 84.1532 15.8792 86.7326 15.8792C89.3119 15.8792 108.657 7.21253 108.98 5.28661C109.302 4.00266 105.755 6.24957 102.854 7.53352C99.6293 8.81747 89.3119 12.3483 85.1205 12.0273C80.6066 11.7064 74.4806 12.0273 71.9012 12.6693C69.3219 13.3113 62.5511 17.4841 59.6493 18.7681C56.7475 20.052 55.1354 20.694 55.1354 20.694C55.1354 20.694 52.5561 19.0891 50.6215 19.0891C48.687 18.7681 44.1731 20.052 44.1731 20.052Z" fill="white"/>
</svg>
