<svg width="14" height="16" viewBox="0 0 14 16" fill="none" xmlns="http://www.w3.org/2000/svg">
<path fill-rule="evenodd" clip-rule="evenodd" d="M3.81817 5.76001H10.1818V4.48C10.1818 2.7125 8.75744 1.28 6.99999 1.28C5.24253 1.28 3.81817 2.7125 3.81817 4.48V5.76001ZM11.4545 5.76001H12.7273C13.4305 5.76001 14 6.33281 14 7.04001V14.72C14 15.4272 13.4305 16 12.7273 16H1.27273C0.569545 16 0 15.4272 0 14.72V7.04001C0 6.33281 0.569545 5.76001 1.27273 5.76001H2.54544V4.48C2.54544 2.00558 4.53962 0 6.99999 0C9.46035 0 11.4545 2.00558 11.4545 4.48V5.76001Z" fill="#C8C7CC"/>
</svg>
