<svg width="203" height="175" viewBox="0 0 203 175" fill="none" xmlns="http://www.w3.org/2000/svg">
<g clip-path="url(#clip0_131_273)">
<path d="M150.449 123.574C150.196 122.475 149.942 121.375 149.773 120.275C149.266 117.231 148.421 114.355 147.576 111.394C146.815 108.942 146.139 106.489 145.378 104.036C144.786 102.175 144.11 100.314 143.603 98.4534C142.42 94.1397 141.913 89.6568 142.166 85.174C142.504 78.7458 143.688 72.5713 145.124 66.3122C145.885 63.0135 146.646 59.7148 147.322 56.4161C147.829 53.8787 148.167 51.3412 148.167 48.7192C148.167 48.3809 148.252 47.958 148.421 47.6196C148.505 47.7888 148.59 48.0425 148.59 48.2117C148.505 50.4954 149.266 52.61 149.773 54.7245C150.703 58.6153 151.717 62.506 152.478 66.3968C154.675 76.9696 155.859 87.7115 156.112 98.4534C156.197 101.414 156.112 104.29 155.69 107.165C155.605 107.504 155.521 107.757 155.436 108.096C155.943 99.0454 155.352 90.0798 154.337 81.1141C153.323 72.1484 151.633 63.2673 149.266 54.5553C149.858 67.9193 149.773 81.2832 149.266 94.6472C149.182 94.6472 149.097 94.6472 149.013 94.6472C148.928 93.2093 148.843 91.7714 148.843 90.3335C148.843 82.2136 148.843 74.0938 148.759 65.8893C148.759 62.2523 148.59 58.6999 148.421 55.0628C148.421 54.6399 148.336 54.217 148.252 53.7941C148.252 53.8787 148.167 54.0479 148.167 54.1324C147.153 58.9536 146.223 63.8594 145.124 68.6805C143.857 74.3475 142.927 80.0991 142.758 85.9352C142.589 90.6718 143.265 95.3238 144.702 99.8913C145.801 103.359 146.899 106.742 147.998 110.21C148.336 111.31 148.59 112.325 148.843 113.424C148.928 113.763 149.097 114.101 149.435 114.439C149.266 113.255 149.013 112.071 148.843 110.887C147.914 105.305 146.899 99.6375 146.139 94.0551C145.124 86.5273 145.124 78.9995 146.054 71.4717C146.139 70.7951 146.308 70.0338 146.561 69.3572C146.561 69.6955 146.477 70.1184 146.477 70.4568C145.294 80.6912 145.97 90.7564 147.745 100.906C148.843 107.25 149.942 113.594 151.041 120.022C151.126 120.698 151.21 121.46 151.21 122.221C151.041 122.728 151.041 123.236 150.449 123.574Z" fill="white"/>
<path d="M80.2115 12.5181C80.4651 13.1948 80.7187 13.7023 80.9722 14.2943C82.5781 17.6776 84.8602 20.7226 87.2269 23.5984C90.0161 27.1508 92.9744 30.6187 95.5946 34.2557C98.1302 37.639 100.412 41.1068 102.694 44.6593C104.723 47.8734 106.582 51.1721 108.526 54.3862C111.231 59.0382 113.682 63.7748 115.795 68.6805C116.133 69.5263 116.387 70.3722 116.641 71.3026C115.88 69.6955 115.204 68.0885 114.443 66.4814C113.175 63.8594 111.823 61.1527 110.386 58.6153C108.78 55.7395 107.005 53.0329 105.315 50.2417C102.441 45.2513 99.1445 40.5147 95.7636 35.7782C93.566 32.7332 91.1994 29.8574 88.9173 26.8125C86.9733 24.1904 85.1138 21.5684 83.2543 18.9464C82.6627 18.1005 82.2401 17.1701 81.5639 16.3243C81.6484 16.7472 81.7329 17.2547 81.902 17.593C82.6627 19.3693 83.4234 21.2301 84.1841 22.9217C84.9448 24.5288 85.7055 26.0512 86.5507 27.5737C87.8185 29.8574 89.0863 32.1411 90.4387 34.3403C93.1434 38.6539 96.0172 42.7985 98.7219 47.1121C100.074 49.3113 101.258 51.6796 102.525 53.9633C103.624 55.9087 104.723 57.9386 105.822 59.884C106.836 61.8294 107.85 63.8594 108.611 65.9739C108.357 65.551 108.019 65.1281 107.766 64.6206C106.751 62.929 105.737 61.2373 104.807 59.4611C103.878 57.854 102.948 56.1624 102.018 54.5553C101.427 53.5404 100.919 52.4408 100.328 51.4258C98.6373 48.6346 96.8624 45.8434 95.0874 43.0522C93.0589 39.7535 90.8613 36.5394 88.9173 33.2407C86.5507 29.3499 84.3531 25.3746 82.6627 21.2301C81.4794 18.4389 80.6341 15.5631 80.0425 12.6873C80.127 12.8565 80.127 12.6873 80.2115 12.5181Z" fill="white"/>
<path d="M67.7022 126.873C76.0699 130.087 84.4376 133.047 93.2279 134.485C102.863 136.092 112.414 136.177 122.05 134.232C123.233 133.978 124.332 133.809 125.6 133.724C124.248 134.062 122.98 134.401 121.627 134.739C109.71 137.361 97.9612 136.515 86.2126 133.555C80.8032 132.202 75.6473 130.341 70.407 128.48C66.9415 127.296 63.3916 126.365 59.9262 125.266C59.7572 125.181 59.5881 125.181 59.5036 124.927C59.9262 124.927 60.4333 124.927 60.856 125.012C64.4904 125.689 68.2094 126.196 71.8438 127.042C77.3378 128.311 82.7472 129.749 88.2411 131.017C95.7636 132.794 103.455 133.301 111.231 133.217C111.4 133.217 111.569 133.217 111.738 133.301C111.062 133.386 110.386 133.47 109.71 133.555C109.034 133.639 108.357 133.724 107.597 133.724C100.074 133.893 92.6363 133.047 85.3674 131.187C80.0425 129.833 74.6331 128.48 69.3082 127.127C68.632 127.127 68.1249 127.042 67.7022 126.873Z" fill="white"/>
<path d="M101.088 170.348C101.258 170.348 101.427 170.263 101.511 170.348C103.117 170.686 104.638 170.348 106.16 170.01C110.47 169.079 114.866 168.149 119.176 167.134C121.881 166.457 124.501 165.442 127.121 164.596C129.234 163.835 131.347 163.074 133.545 162.397C135.32 161.805 137.095 161.129 138.87 160.537C142.589 159.352 146.308 158.507 150.196 158.168C152.309 157.999 154.506 157.745 156.619 157.492C157.042 157.492 157.465 157.492 157.887 157.576C157.465 157.661 157.042 157.745 156.704 157.745C153.408 158.168 150.196 158.591 146.899 159.099C144.11 159.522 141.406 160.283 138.701 161.213C135.573 162.313 132.362 163.412 129.234 164.512C122.473 167.049 115.457 168.826 108.357 170.179C108.104 170.263 107.935 170.263 107.681 170.433C113.429 170.433 119.261 170.179 124.924 169.164C130.587 168.233 136.25 166.965 141.913 165.95C140.729 166.288 139.631 166.711 138.447 166.965C134.221 167.895 129.911 168.995 125.6 169.756C118.585 170.94 111.485 171.363 104.3 171.109C103.371 171.109 102.441 170.856 101.511 170.771C101.342 170.771 101.258 170.602 101.088 170.602C101.004 170.433 101.088 170.433 101.088 170.348Z" fill="white"/>
<path d="M187.639 133.809C187.808 133.217 187.977 132.709 188.146 132.117C189.668 127.888 191.02 123.574 191.696 119.176C192.626 113.171 192.626 107.25 191.527 101.329C190.597 96.085 190.09 90.7564 190.09 85.4277C190.09 85.174 190.09 85.0048 190.006 84.7511C189.921 84.7511 189.837 84.7511 189.752 84.7511C189.668 85.0894 189.583 85.4277 189.583 85.766C188.822 91.5176 188.484 97.2692 188.315 103.021C188.146 107.334 187.893 111.733 187.724 116.046C187.639 117.231 187.47 118.33 187.132 119.514C187.132 119.091 187.132 118.668 187.132 118.246C187.47 110.464 187.724 102.682 188.146 94.9009C188.4 90.2489 188.991 85.6815 189.837 81.114C189.921 80.522 190.09 79.9299 190.259 79.2532C190.259 79.0841 190.259 78.9995 190.259 78.8303C190.344 78.8303 190.428 78.9149 190.513 78.9149C190.344 80.0991 190.175 81.1986 190.006 82.2982C190.09 82.6365 190.259 82.9748 190.344 83.3132C190.513 89.9106 191.274 96.4234 192.372 102.936C193.809 111.141 192.795 119.091 190.344 126.957C189.583 129.326 188.653 131.609 187.808 133.893C187.808 133.809 187.724 133.809 187.639 133.809Z" fill="white"/>
<path d="M49.8681 47.2813C49.0228 46.2663 48.1776 45.2513 47.4169 44.2363C45.642 41.868 44.2051 39.4152 42.8527 36.7931C42.092 35.1861 41.1623 33.6636 40.4861 32.0565C39.4719 29.5191 38.6266 26.9816 37.6124 24.4442C37.2743 23.4292 36.9362 22.4142 36.5136 21.3992C35.8374 19.623 35.0767 17.7622 34.316 15.986C33.5553 14.0406 32.7101 12.0106 31.8649 10.0652C30.5125 7.02029 28.9066 4.05993 26.7935 1.52247C26.6245 1.3533 26.54 1.09956 26.4554 0.930394C26.54 0.845812 26.54 0.845812 26.6245 0.76123C27.3852 1.69163 28.2304 2.45287 28.8221 3.46785C30.0054 5.41324 31.1887 7.27404 32.2029 9.304C33.8089 12.6873 35.2457 16.1551 36.5981 19.5384C37.8659 22.6679 38.8802 25.7975 40.0635 28.927C41.2468 32.0565 42.5992 35.1861 44.2896 38.1464C45.1348 39.4997 45.811 40.9376 46.6562 42.291C47.586 43.7288 48.6002 45.1667 49.6145 46.5201C49.7835 46.6892 49.8681 46.943 49.9526 47.1121C49.9526 47.1967 49.9526 47.1967 49.8681 47.2813Z" fill="white"/>
<path d="M1.94404 42.8831C4.22614 44.5747 6.59275 46.0972 8.87485 47.8734C15.2985 52.6946 22.3139 56.247 30.0899 58.277C34.0624 59.292 38.035 60.2224 42.0075 61.2373C45.5575 62.0832 49.1074 63.0136 52.4883 64.3669C52.9954 64.6206 53.5871 64.7898 54.0942 65.2127C54.0097 65.2127 53.8406 65.2127 53.7561 65.2127C47.586 63.0136 41.1623 61.7448 34.8231 60.2223C30.0054 59.0382 25.1876 57.6849 20.6234 55.5703C16.6509 53.7095 12.8474 51.5104 9.38198 48.8038C7.18441 47.1122 4.90231 45.4205 2.70474 43.8135C2.36665 43.5597 2.11308 43.306 1.77499 42.9676C1.85952 42.9676 1.85952 42.8831 1.94404 42.8831Z" fill="white"/>
<path d="M86.3817 33.4099C88.0721 35.9473 89.8471 38.4848 91.453 41.1914C92.8053 43.4751 93.9886 45.8434 94.8339 48.3809C95.51 50.58 96.2707 52.6945 97.0314 54.8937C97.2005 55.4857 97.4541 56.1624 97.6231 56.7545C98.8909 59.9686 100.919 62.5906 103.117 65.1281C105.315 67.6655 107.512 70.2876 109.541 72.9096C111.569 75.5316 113.26 78.3228 114.781 81.2832C115.119 82.0445 115.373 82.8057 115.711 83.6515C116.472 85.7661 117.232 87.8806 117.908 89.9952C117.824 90.0797 117.739 90.0797 117.655 90.1643C117.57 89.9952 117.486 89.7414 117.401 89.5723C117.063 88.4727 116.725 87.3731 116.302 86.3581C115.88 85.2586 115.457 84.2436 115.119 83.144C114.189 80.6066 112.584 78.3229 111.147 76.0391C108.442 71.7255 104.977 68.0884 101.765 64.2823C100.074 62.2523 98.5528 60.1377 97.5386 57.7694C96.9469 56.3316 96.5243 54.8937 96.1017 53.4558C95.0029 49.8187 93.9886 46.0971 91.9601 42.7984C90.2697 39.9227 88.4947 37.1315 86.8043 34.2557C86.5507 33.9173 86.4662 33.6636 86.3817 33.4099Z" fill="white"/>
<path d="M41.4159 104.628C46.4872 104.543 51.5585 104.543 56.6298 104.374C63.2226 104.12 69.6462 103.021 76.1544 102.26C80.8877 101.667 85.6209 101.329 90.3542 100.906C92.2137 100.737 93.9886 100.822 95.8481 101.245C95.5945 101.245 95.341 101.245 95.1719 101.245C91.622 100.991 88.1566 101.414 84.6912 101.837C77.8449 102.682 70.9986 103.613 64.1523 104.459C57.9822 105.22 51.7276 105.474 45.5574 105.135C44.1206 104.966 42.6837 104.797 41.4159 104.628C41.3313 104.628 41.4159 104.628 41.4159 104.628Z" fill="white"/>
<path d="M27.7233 101.921C30.9351 103.021 34.0624 104.12 37.2743 105.135C40.4861 106.15 43.6979 106.827 47.0788 107.25C50.4597 107.673 53.7561 107.927 57.137 108.096C60.4333 108.265 63.8142 108.18 67.1106 108.096C70.4915 108.011 73.7878 107.588 77.1687 107.081C76.9151 107.165 76.7461 107.25 76.4925 107.25C76.239 107.334 75.9854 107.419 75.8163 107.419C69.3927 108.688 62.969 108.941 56.4608 108.603C50.0371 108.265 43.6979 107.588 37.5278 105.812C34.316 104.882 31.2732 103.782 28.2304 102.344C28.0614 102.26 27.8923 102.175 27.7233 102.09C27.7233 102.006 27.7233 101.921 27.7233 101.921Z" fill="white"/>
<path d="M79.1127 125.689C93.9041 123.659 108.273 125.942 122.557 129.579C122.388 129.579 122.304 129.579 122.134 129.579C121.965 129.579 121.881 129.579 121.712 129.495C117.57 128.818 113.513 128.142 109.372 127.38C100.666 125.773 91.8756 125.35 83.0007 125.689C81.7329 125.689 80.3806 125.689 79.1127 125.689Z" fill="white"/>
<path d="M93.6505 138.714C96.7778 138.799 99.9051 138.968 103.032 138.883C107.597 138.799 111.992 138.038 116.471 137.192C121.289 136.261 126.022 135.162 130.84 134.231C133.122 133.809 135.32 133.386 137.602 133.047C138.363 132.878 139.208 132.794 140.222 133.217C135.912 133.555 131.939 134.654 127.882 135.5C120.529 137.192 113.091 138.799 105.568 139.391C101.68 139.729 97.8766 139.476 93.9886 138.883C93.9041 138.883 93.735 138.799 93.6505 138.714C93.6505 138.799 93.6505 138.714 93.6505 138.714Z" fill="white"/>
<path d="M24.0043 64.7897C24.5114 64.9589 24.9341 65.2126 25.4412 65.3818C33.6398 68.8497 42.1766 70.3721 51.0514 70.4567C54.8549 70.4567 58.6584 70.5413 62.3773 70.7105C66.1808 70.8796 69.8998 71.3025 73.7033 71.6409C74.295 71.7255 74.8021 71.8946 75.3092 72.1484C73.7033 71.9792 72.0974 71.81 70.4915 71.6409C64.8285 71.1334 59.1655 71.218 53.5025 71.0488C48.9383 70.9642 44.2896 70.8796 39.8099 70.1184C34.9077 69.3572 30.1744 67.9193 25.6102 65.8893C25.0186 65.6356 24.4269 65.2972 23.8353 65.0435C23.9198 64.9589 23.9198 64.8743 24.0043 64.7897Z" fill="white"/>
<path d="M32.541 105.643C50.4597 112.748 68.4629 114.186 86.9733 107.504C86.0435 107.927 85.2828 108.349 84.4376 108.603C78.7746 110.464 73.0271 111.986 67.0261 112.156C59.25 112.409 51.5585 111.902 44.0361 109.956C40.148 108.942 36.4291 107.419 32.7946 105.727C32.7946 105.812 32.7101 105.727 32.541 105.643Z" fill="white"/>
<path d="M29.8364 10.7419C30.8506 12.941 31.8649 15.1401 32.7946 17.3393C33.0482 17.8468 33.2172 18.2697 33.3863 18.7772C34.6541 22.0759 35.9219 25.4591 37.2743 28.8424C38.4576 31.9719 39.3874 35.1861 40.9933 38.1464C43.7825 43.3905 46.6563 48.4654 50.7978 52.8637C53.0799 55.232 55.6156 57.1774 58.4048 58.869C58.7429 59.1227 59.081 59.2919 59.3346 59.6302C59.25 59.5457 59.081 59.5457 58.9965 59.4611C53.9252 56.6699 49.6991 52.9483 46.4027 48.1271C43.1908 43.4751 40.4016 38.4848 38.3731 33.2407C37.5279 31.1261 36.8517 28.927 36.091 26.7279C35.5839 25.3746 35.0767 24.0212 34.5696 22.7525C33.0482 18.8617 31.4423 15.0556 29.8364 11.1648C29.8364 11.0802 29.7518 10.9956 29.7518 10.911C29.7518 10.8265 29.7518 10.8265 29.8364 10.7419Z" fill="white"/>
<path d="M182.99 147.68C182.821 146.496 182.568 145.396 182.399 144.212C181.638 138.122 181.3 131.948 182.145 125.773C182.483 123.32 183.075 120.952 183.498 118.499C184.512 113.001 185.442 107.504 186.371 102.09C186.456 101.837 186.456 101.583 186.625 101.329C186.625 101.667 186.625 101.921 186.54 102.26C186.033 107.419 185.442 112.663 184.089 117.738C181.638 127.296 181.554 136.854 182.99 146.496C183.075 146.919 183.075 147.257 183.159 147.68C183.159 147.68 183.075 147.68 182.99 147.68Z" fill="white"/>
<path d="M6.3392 48.2117C7.18442 48.8883 8.02965 49.565 8.87487 50.2416C12.9319 53.6249 17.0735 57.0082 21.8067 59.5456C28.7376 63.4364 36.0065 66.2276 43.867 67.6655C44.0361 67.6655 44.2896 67.7501 44.4587 67.7501C44.5432 67.7501 44.5432 67.8347 44.7122 68.0038C37.6969 67.0734 31.1887 64.7897 24.9341 61.8294C17.8342 58.4461 11.7486 53.7941 6.3392 48.2117Z" fill="white"/>
<path d="M169.467 157.661C169.213 157.492 169.129 157.407 169.044 157.322C169.72 157.153 170.312 157.069 170.904 156.899C170.904 156.984 170.988 156.984 170.988 157.069C170.735 157.238 170.397 157.492 170.143 157.661C168.114 158.676 166.17 159.775 164.057 160.621C161.437 161.721 158.817 162.651 156.197 163.581C153.999 164.343 151.717 165.104 149.52 165.865C144.955 167.303 140.391 168.572 135.743 169.418C133.799 169.756 131.939 170.094 129.995 170.517C129.741 170.602 129.488 170.602 129.234 170.517C143.011 167.726 156.366 163.412 169.467 157.661Z" fill="white"/>
<path d="M67.9558 60.1377C66.3499 58.869 64.6594 57.6003 63.138 56.247C58.9965 52.6945 55.4465 48.55 52.2347 44.1518C50.6288 42.0372 49.1074 39.8381 47.6705 37.5544C45.642 34.2557 43.867 30.8724 42.5992 27.1508C42.4301 26.7279 42.2611 26.3896 42.092 25.9666C40.7397 22.8371 39.3028 19.7076 37.8659 16.6626C37.3588 15.5631 36.6826 14.4635 36.26 13.2794C37.2743 15.1402 38.2885 17.001 39.2183 18.9463C40.4016 21.3992 41.5004 23.9367 42.5992 26.4741C43.1063 27.6583 43.5289 28.927 44.036 30.0266C46.4027 35.3552 49.53 40.1764 53.0799 44.8284C56.2072 48.9729 59.5036 52.8637 63.3916 56.247C64.913 57.5157 66.4344 58.7844 67.9558 60.0532C67.9558 59.9686 67.9558 60.0532 67.9558 60.1377Z" fill="white"/>
<path d="M83.7615 122.728C85.4519 121.967 87.2269 121.713 89.0864 121.46C96.6088 120.529 104.047 121.46 111.485 123.067C113.851 123.574 116.218 124.251 118.585 124.843C118.585 124.928 118.585 125.012 118.5 125.097C116.81 124.758 115.035 124.42 113.344 123.997C108.949 123.067 104.469 122.39 99.9052 121.967C94.8339 121.46 89.7625 121.798 84.7757 122.559C84.3531 122.644 84.0996 122.728 83.7615 122.728Z" fill="white"/>
<path d="M53.1645 36.7086C54.7704 38.231 56.3763 39.8381 57.9822 41.3606C60.6869 43.9826 62.8845 47.0276 65.2511 49.9033C68.2094 53.4558 70.8296 57.262 73.4498 61.0681C74.5486 62.6752 75.3092 64.4514 76.1545 66.2276C76.0699 66.2276 75.9854 66.3122 75.9854 66.3122C75.6473 65.7202 75.3093 65.1281 75.0557 64.536C73.9569 62.1677 72.351 60.2223 70.8296 58.1078C67.3642 53.1174 63.4762 48.4654 59.5881 43.8134C57.6441 41.5297 55.362 39.3306 53.3335 37.1315C53.249 37.0469 53.249 36.9623 53.1645 36.8777C53.0799 36.7931 53.1645 36.7931 53.1645 36.7086Z" fill="white"/>
<path d="M107.85 58.1078C108.019 58.3615 108.273 58.5307 108.357 58.869C109.794 61.5756 111.316 64.1977 112.753 66.9043C114.105 69.5263 115.542 72.1484 116.725 74.855C117.993 77.6462 118.923 80.522 119.599 83.567C119.852 84.5819 120.106 85.5123 120.19 86.6119C119.852 85.5123 119.43 84.4128 119.092 83.2286C118.5 81.3678 117.908 79.507 117.232 77.7308C116.894 76.6312 116.472 75.5317 115.964 74.5167C114.274 71.0488 112.499 67.6655 110.724 64.1977C109.71 62.2523 108.695 60.2223 107.766 58.277C107.766 58.1078 107.766 58.1078 107.85 58.1078Z" fill="white"/>
<path d="M86.2126 95.8313C83.9305 96.1696 81.6484 96.4234 79.2818 96.6771C73.1117 97.3538 67.0261 98.0304 60.856 98.7917C58.1513 99.13 55.5311 99.8067 52.9109 100.314C52.5728 100.399 52.3192 100.399 51.9811 100.314C53.1644 99.9758 54.3478 99.6375 55.6156 99.2992C61.025 97.9459 66.5189 97.4384 72.0974 96.8463C76.408 96.4234 80.7187 96.0005 85.0293 95.5776C85.3674 95.5776 85.79 95.5776 86.1281 95.493C86.2126 95.6621 86.2126 95.7467 86.2126 95.8313Z" fill="white"/>
<path d="M184.85 94.3088C181.3 106.066 179.863 118.161 179.863 130.425C179.271 128.48 179.779 118.161 180.624 112.156C181.469 106.066 182.821 100.06 184.85 94.3088Z" fill="white"/>
<path d="M114.95 61.3219C112.245 53.8787 108.611 46.8584 103.878 40.5147C109.203 46.6046 112.837 53.5403 114.95 61.3219Z" fill="white"/>
<path d="M44.5432 24.3596C47.3324 31.6336 51.3895 38.0618 56.2918 44.0671C51.1359 38.3156 46.7408 31.9719 44.5432 24.3596Z" fill="white"/>
<path d="M153.239 98.0304C152.731 89.4876 152.224 81.1986 151.717 73.1633C152.309 74.6012 153.577 93.9705 153.239 98.0304Z" fill="white"/>
<path d="M46.4872 65.1281C41.2468 64.9589 29.1602 61.6602 25.1031 59.2919C25.4412 59.3765 25.7793 59.4611 26.1174 59.6303C28.9911 60.6452 31.8649 61.6602 34.7386 62.5906C38.2885 63.7748 41.8385 64.4514 45.5574 65.0435C45.811 65.0435 46.1491 65.0435 46.4872 65.1281Z" fill="white"/>
<path d="M152.562 155.462C146.308 156.054 140.307 157.492 134.306 159.522C137.687 157.576 147.998 155.292 152.562 155.462Z" fill="white"/>
<path d="M117.148 172.547C121.458 172.378 125.853 172.124 130.164 171.955C128.896 172.547 119.937 172.97 117.148 172.547Z" fill="white"/>
<path d="M19.5246 62.0831C17.4961 60.3915 15.5521 58.6999 13.5236 57.0082C13.6081 56.9236 13.6081 56.9236 13.6926 56.8391C15.7211 58.5307 17.7497 60.2223 19.7782 61.914C19.6937 61.9985 19.6092 62.0831 19.5246 62.0831Z" fill="white"/>
<path d="M99.4825 170.433C99.8206 170.433 100.159 170.348 100.412 170.348C103.032 170.01 105.737 169.756 108.357 169.333C110.47 168.995 112.414 167.98 114.274 167.049C118.669 164.766 122.895 162.059 127.037 159.352C132.193 155.969 137.94 154.277 143.941 153.432C148.843 152.67 153.746 152.924 158.563 153.77C161.606 154.277 164.565 155.039 167.523 155.715C169.298 156.138 171.073 156.392 172.932 156.223C174.961 156.054 176.989 156.054 179.187 155.969C178.68 155.631 178.342 155.462 178.004 155.292C171.242 151.486 164.903 147.173 158.817 142.351C156.789 140.744 154.845 138.968 152.816 137.276C152.14 136.769 151.379 136.261 150.618 135.839C147.998 134.654 145.124 133.978 142.251 133.639C140.56 133.47 139.039 134.062 137.517 134.654C134.559 135.839 131.601 137.107 128.727 138.461C126.445 139.56 123.994 140.152 121.543 140.321C120.19 140.406 118.838 140.575 117.486 140.66C114.866 140.829 112.33 141.506 109.794 142.098C103.286 143.536 96.7778 143.705 90.2696 141.675C87.6494 140.829 84.9447 139.898 82.4091 138.799C76.408 136.177 70.576 132.963 65.082 129.41C63.3071 128.311 61.6166 127.211 59.8417 126.112C59.4191 125.858 58.9119 125.52 58.4893 125.181C58.7429 124.589 59.1655 124.758 59.5036 124.758C61.5321 124.843 63.6452 124.927 65.6737 124.927C69.8998 125.012 73.9569 124.166 78.0139 123.32C84.015 122.052 90.0161 120.783 96.1017 120.191C103.202 119.514 110.217 120.191 117.063 122.052C120.529 122.982 123.825 124.589 127.121 126.112C130.333 127.634 133.545 129.326 136.757 130.848C138.616 131.694 140.645 132.202 142.673 132.54C144.617 132.878 146.477 133.386 148.336 133.893C148.674 133.978 149.012 134.062 149.52 134.232C149.266 133.893 149.097 133.639 148.928 133.47C141.828 126.873 135.32 119.683 128.643 112.748C127.459 111.479 126.276 110.21 125.008 109.026C124.163 108.18 123.149 107.419 122.134 106.742C119.514 104.882 116.471 104.036 113.344 103.697C108.949 103.19 104.638 103.782 100.581 105.389C98.1302 106.319 95.8481 107.504 93.3969 108.603C89.5089 110.379 85.7054 112.24 81.8174 113.847C74.295 116.892 66.5189 117.653 58.5738 115.877C48.9383 113.678 39.8099 110.295 31.3577 105.22C28.9066 103.697 26.54 102.09 24.0888 100.483C23.6662 100.23 23.3281 99.8912 22.99 99.5529C22.99 99.4683 23.0746 99.3838 23.0746 99.2992C23.4126 99.3838 23.6662 99.3838 24.0043 99.4683C27.0471 100.145 30.0899 100.737 33.2172 100.737C36.429 100.822 39.5564 100.23 42.6837 99.2146C46.4027 98.0304 50.0371 96.6771 53.7561 95.5776C60.3488 93.6322 67.0261 93.0401 73.7878 94.2243C74.9711 94.3934 76.1544 94.6472 77.2532 94.8163C79.4508 95.1547 81.6484 95.4084 83.7614 95.1547C89.1708 94.5626 94.1576 95.8313 98.8909 98.115C100.666 98.9608 102.441 99.8067 104.216 100.568C106.751 101.752 109.287 102.513 112.161 102.682C114.95 102.852 117.57 103.444 120.106 104.628C120.19 104.628 120.275 104.712 120.529 104.712C120.444 104.543 120.359 104.374 120.275 104.29C114.95 98.9609 109.71 93.5476 103.793 88.8956C98.5528 84.8357 93.3124 80.8603 87.6494 77.3925C85.1138 75.87 82.4091 74.7704 79.7044 73.5863C75.3937 71.8101 70.9141 71.8101 66.3499 72.4867C62.8845 72.9942 59.4191 73.9246 55.9537 74.3475C46.0646 75.6162 36.429 74.3475 27.3852 69.9492C21.6377 67.158 16.7354 63.2673 12.2557 58.6999C9.21292 55.5703 6.59274 52.0179 3.97255 48.4654C2.6202 46.6046 1.35237 44.6593 0.0845368 42.7139C-0.0845074 42.4601 -0.16903 42.2064 -0.338074 41.6989C1.47223e-05 41.7835 0.253581 41.868 0.422625 41.9526C1.69046 42.7139 2.95829 43.3905 4.1416 44.2363C8.11414 46.943 12.4248 49.0575 16.9044 50.58C19.6937 51.595 22.6519 52.0179 25.6102 52.2716C30.597 52.6945 35.4993 53.5404 40.3171 54.6399C42.9372 55.232 45.5574 56.1624 48.0086 57.3465C48.3467 57.5157 48.6847 57.6849 49.1074 57.6003C48.6847 57.0928 48.1776 56.5853 47.755 56.0778C44.3741 52.5254 41.6694 48.4654 39.4718 44.1518C38.8802 42.9676 38.204 41.7835 37.6124 40.5147C35.7529 36.7086 34.485 32.6486 33.5553 28.5887C32.4565 23.6829 31.5268 18.7772 30.3435 13.956C29.4982 10.4882 28.3149 7.10488 27.3007 3.63702C26.878 2.36829 26.3709 1.09956 25.8638 -0.422913C26.2864 -0.169167 26.54 -0.0845849 26.7935 0.084579C31.0196 3.63702 34.9922 7.44321 38.2885 11.8415C41.0778 15.6477 43.7825 19.5384 46.4872 23.4292C50.5442 29.7728 54.9394 35.1861 60.0107 40.0918C63.2226 43.2214 66.0118 46.6046 68.3784 50.3262C70.2379 53.3712 71.8438 56.5853 73.2807 59.884C74.0414 61.4911 74.7176 63.0135 75.4783 64.6206C76.577 66.9043 78.0984 68.9343 79.7889 70.7951C80.8032 71.8946 82.071 72.7404 83.2543 73.5863C88.2411 76.885 93.2279 80.0991 98.1302 83.4824C105.484 88.5573 112.076 94.5626 118.331 100.906C119.514 102.175 120.782 103.359 122.05 104.543C122.134 104.459 122.219 104.374 122.219 104.374C121.458 102.175 120.698 99.9758 120.021 97.7767C119.43 95.8313 118.669 93.9705 117.655 92.1943C115.795 88.7264 113.598 85.3432 111.147 82.2136C108.78 79.1687 106.16 76.5466 103.117 74.1783C100.75 72.3175 98.3838 70.3722 96.6088 67.9193C95.0029 65.6356 93.8196 63.1827 92.9743 60.5607C92.2136 58.2769 91.622 55.9932 91.1149 53.7095C90.2696 50.2417 88.7482 47.1967 86.4661 44.4901C85.0293 42.7985 83.6769 41.1068 82.7472 39.0768C81.3103 35.9473 80.8032 32.6486 80.7186 29.1808C80.6341 26.8125 80.6341 24.3596 80.6341 21.9913C80.6341 19.0309 80.296 16.1551 79.6198 13.2794C79.5353 12.941 79.5353 12.5181 79.4508 12.1798C79.5353 12.1798 79.6198 12.0952 79.6198 12.0952C80.2115 12.941 80.8032 13.8714 81.3948 14.7173C84.7757 19.623 88.8328 23.8521 93.3969 27.7429C97.454 31.1261 101.342 34.6786 105.315 38.231C110.217 42.6293 113.767 47.9579 115.964 54.1324C116.556 55.9086 117.063 57.7695 117.401 59.5457C117.908 62.506 118.5 65.4664 119.345 68.4268C120.698 73.1634 121.12 77.9845 121.036 82.8903C120.951 86.6965 120.782 90.5027 120.867 94.3088C120.951 98.4534 121.712 102.513 123.825 106.235C123.994 106.573 124.248 106.912 124.501 107.165C131.685 114.608 138.87 121.967 146.139 129.41C147.66 130.933 149.182 132.371 150.703 133.809C150.956 134.062 151.295 134.316 151.633 134.654C151.633 134.401 151.717 134.232 151.717 134.062C151.21 131.017 150.618 127.972 150.111 124.927C149.689 122.475 149.182 120.022 148.59 117.569C147.998 115.031 146.815 112.748 145.463 110.549C143.688 107.757 141.913 104.966 140.391 102.006C137.433 96.0851 136.419 89.7414 137.94 83.2286C138.785 79.4224 139.884 75.7008 140.983 71.9792C142.504 66.9889 144.11 62.0831 145.716 57.1774C146.646 54.3016 147.153 51.3412 147.66 48.3809C147.745 47.9579 147.829 47.4505 147.998 47.0275C148.083 47.0275 148.167 47.0275 148.252 47.0275C148.336 47.1967 148.421 47.3659 148.421 47.6196C148.843 50.0725 149.182 52.5254 149.773 54.8937C150.449 57.3465 151.295 59.7148 152.14 62.1677C153.154 65.2972 154.253 68.4268 155.352 71.5563C156.197 74.0938 157.042 76.5466 157.887 79.0841C160 85.2586 161.099 91.6022 160.846 98.0304C160.677 103.444 159.155 108.434 156.704 113.255C155.69 115.37 154.675 117.484 153.661 119.514C152.478 122.136 151.802 124.758 151.886 127.719C151.971 129.833 151.971 131.863 152.562 133.893C153.07 135.5 153.83 136.938 155.183 138.038C163.804 145.481 173.186 151.74 183.244 156.984C183.498 157.069 183.751 157.238 184.089 157.322C184.089 157.153 184.174 156.984 184.174 156.899C183.751 154.531 183.244 152.078 182.906 149.71C182.737 148.272 182.399 146.834 181.807 145.481C180.708 142.943 179.525 140.406 178.088 138.038C175.637 133.893 174.961 129.326 176.06 124.674C176.736 121.713 176.989 118.753 176.651 115.793C175.975 109.787 177.243 104.205 179.948 98.9608C181.3 96.2542 182.737 93.6322 184.258 90.9256C186.54 86.8656 188.484 82.6365 189.837 78.1537C189.921 77.8999 189.921 77.6462 190.006 77.477C190.09 77.477 190.175 77.477 190.344 77.477C190.344 77.7308 190.428 77.9845 190.428 78.3229C190.259 81.7907 190.259 85.2586 190.935 88.6419C191.527 91.5176 192.203 94.3934 192.879 97.2692C193.978 101.837 194.993 106.319 195.246 111.056C195.669 117.907 194.57 124.505 191.696 130.848C190.428 133.639 189.076 136.346 187.724 139.053C187.301 139.983 186.794 140.829 186.371 141.759C184.089 145.988 183.751 150.471 184.765 155.123C184.934 155.884 185.188 156.646 185.357 157.492C185.526 158.168 185.864 158.591 186.54 158.845C193.302 162.228 200.233 165.104 207.502 167.134C212.827 168.656 218.152 170.094 223.646 170.855C226.519 171.278 229.478 171.448 232.351 171.617C233.281 171.701 234.211 171.701 235.141 171.701C236.831 171.786 236.915 171.87 236.915 173.816C236.577 173.9 236.155 174.07 235.817 173.985C233.366 173.816 230.914 173.731 228.463 173.393C219.588 172.124 210.798 170.01 202.346 166.965C197.021 165.019 191.95 162.651 186.878 160.198C185.357 159.437 183.836 158.591 182.314 157.914C181.723 157.661 181.131 157.407 180.539 157.407C175.891 156.899 171.495 157.83 167.438 160.198C164.057 162.228 161.015 164.681 157.803 166.965C154.168 169.587 150.196 171.278 145.632 171.278C143.434 171.278 141.321 171.448 139.292 172.209C138.363 172.547 137.433 172.885 136.588 173.308C134.644 174.239 132.615 174.831 130.502 175C127.966 175.254 125.431 175.507 122.895 175.423C116.387 175.254 109.963 174.408 103.709 172.378C102.694 172.04 101.596 171.786 100.581 171.448C100.243 171.363 99.9052 171.194 99.5671 171.025C99.4825 170.517 99.4825 170.517 99.4825 170.433ZM80.4651 14.2943C80.4651 14.5481 80.5496 14.8864 80.6341 15.1402C81.3948 17.6776 81.5639 20.2997 81.6484 23.0063C81.7329 25.3746 81.7329 27.6583 81.8174 30.0266C81.9865 32.9869 82.4936 36.0319 83.9305 38.9077C84.7757 40.5993 85.8745 42.0372 87.0578 43.4751C89.5089 46.4355 91.2839 49.7342 92.2136 53.5404C92.8898 56.247 93.6505 58.9536 94.5803 61.6602C95.7636 65.0435 97.6231 68.173 100.412 70.5413C101.934 71.8101 103.455 73.1634 104.976 74.3475C109.71 78.0691 113.091 82.8057 116.218 87.796C116.725 88.5573 117.148 89.3185 117.655 90.0797C117.739 90.0797 117.739 89.9952 117.824 89.9952C116.302 84.5819 114.612 79.2533 112.499 74.0092C113.513 75.87 114.527 77.7308 115.204 79.7607C116.725 84.2436 118.162 88.7264 119.599 93.2093C119.683 93.463 119.768 93.6322 120.021 94.0551C120.021 93.6322 120.106 93.463 120.106 93.2939C120.19 89.3185 120.275 85.3432 120.275 81.3678C120.275 77.2233 119.852 73.0788 118.754 69.1034C117.993 66.2276 117.232 63.4364 116.81 60.4761C116.387 57.6003 115.542 54.8937 114.443 52.2716C112.33 47.1121 109.034 42.7985 104.976 39.0768C100.666 35.1015 96.2707 31.2107 91.791 27.4045C87.3114 23.5138 83.5924 19.2001 80.4651 14.2943ZM59.5881 125.181C59.7571 125.266 59.8417 125.35 60.0107 125.435C61.7857 126.45 63.6452 127.465 65.4201 128.565C70.1534 131.44 74.9711 134.062 79.9579 136.515C82.24 137.615 84.6067 138.63 86.9733 139.476C93.4815 141.928 100.159 142.943 107.09 141.59C108.949 141.252 110.808 140.829 112.583 140.406C115.373 139.729 118.331 139.56 121.205 139.306C123.994 139.053 126.614 138.461 129.15 137.276C132.108 135.923 135.151 134.739 138.194 133.386C138.363 133.301 138.532 133.132 138.785 133.047C132.531 132.371 126.276 131.948 120.021 132.709C120.529 132.54 121.036 132.371 121.543 132.286C126.107 131.609 130.756 131.525 135.404 131.779C135.743 131.779 136.081 131.779 136.503 131.779C136.334 131.525 136.25 131.44 136.081 131.356C133.714 130.172 131.263 128.987 128.896 127.803C125.6 126.196 122.304 124.505 118.754 123.405C111.231 120.952 103.455 120.275 95.5945 121.121C89.847 121.713 84.0995 122.898 78.4365 124.082C74.633 124.843 70.8295 125.604 66.857 125.52C64.4059 125.52 62.0392 125.35 59.5881 125.181ZM105.991 102.429C105.906 102.344 105.822 102.26 105.822 102.26C103.032 100.991 100.159 99.7221 97.3695 98.4534C93.2279 96.5926 88.9173 95.7467 84.3531 96.1696C81.7329 96.4234 79.1127 96.1696 76.577 95.7467C75.8163 95.5776 74.9711 95.493 74.2104 95.3238C66.857 93.9705 59.5881 94.8163 52.4882 97.0155C49.3609 97.9459 46.3181 99.0454 43.2753 100.06C37.6969 101.921 32.0339 102.006 26.2864 100.483C26.0328 100.399 25.6947 100.399 25.4412 100.314C25.5257 100.568 25.6947 100.737 25.7793 100.822C34.2315 106.319 43.2753 110.718 52.9954 113.509C55.7846 114.355 58.6584 115.031 61.5321 115.454C66.6034 116.385 71.7593 116.046 76.7461 114.693C82.4936 113.086 87.734 110.464 93.1434 107.927C95.679 106.742 98.2992 105.643 100.835 104.543C101.596 104.205 102.441 103.951 103.286 103.697C103.286 103.613 103.286 103.528 103.286 103.528C96.6933 103.867 90.1851 104.628 83.7614 106.066C87.3114 104.797 90.9458 104.036 94.7493 103.613C98.3838 103.105 102.103 102.852 105.991 102.429ZM77.9294 70.203C78.0139 70.1184 78.0139 70.1184 78.0984 70.0338C77.9294 69.8647 77.8449 69.6109 77.6758 69.4418C76.6616 67.9193 75.5628 66.4814 74.7176 64.8743C73.3652 62.2523 72.1819 59.5457 70.9141 56.839C68.2939 51.3412 64.913 46.3509 60.6024 41.9526C58.1512 39.4998 55.7846 37.0469 53.5025 34.4248C49.4454 29.8574 46.1491 24.8671 42.8527 19.7922C38.6266 13.3639 33.7243 7.35862 27.9768 2.02996C27.7233 1.77622 27.3852 1.52247 27.0471 1.26873C27.0471 1.43789 27.0471 1.52247 27.0471 1.60705C29.0756 5.66699 30.3435 9.98066 31.4422 14.4635C32.6255 19.4538 33.6398 24.4442 34.8231 29.4345C35.7529 33.3253 36.8517 37.1315 38.6266 40.6839C39.1338 41.6989 39.6409 42.6293 40.148 43.6443C42.5146 48.3809 45.4729 52.6945 49.1074 56.5007C50.9668 58.4461 53.0799 59.9686 55.4465 61.1527C58.1512 62.4215 61.025 63.1827 63.8142 63.9439C65.8427 64.536 67.7868 65.2127 69.7308 65.8893C69.8998 65.9739 69.9843 65.9739 70.1534 65.9739C69.8998 65.6356 69.6462 65.3818 69.3927 65.2127C66.857 63.0981 64.2368 60.9836 61.7012 58.7844C59.5881 57.0082 57.6441 55.0628 55.6156 53.202C55.4465 53.0329 55.362 52.8637 55.193 52.7791C55.1084 52.6945 55.0239 52.5254 54.9394 52.3562C62.6309 58.3615 69.8998 64.7897 77.9294 70.203ZM150.365 106.319C150.449 106.319 150.534 106.319 150.618 106.319C151.295 111.733 151.126 117.231 151.548 122.813C152.224 121.206 152.731 119.768 153.323 118.33C154.422 116.046 155.521 113.763 156.619 111.479C158.648 107.081 160 102.429 160.085 97.6075C160.254 90.9256 159.071 84.4973 156.873 78.2383C156.028 75.7854 155.183 73.3325 154.422 70.8797C153.239 67.2426 152.055 63.6056 150.787 59.9686C149.773 56.9236 148.843 53.7941 148.59 50.58C148.59 50.2417 148.505 49.8187 148.421 49.4804C148.252 49.8187 148.167 50.1571 148.083 50.4954C147.576 52.8637 147.153 55.232 146.477 57.5157C144.702 63.6056 142.758 69.6955 140.983 75.7854C139.8 79.7607 138.785 83.7361 138.532 87.796C138.194 92.3635 139.292 96.7617 141.236 100.822C142.673 103.782 144.448 106.573 146.223 109.364C148.083 112.325 149.351 115.37 150.111 118.753C150.28 119.43 150.365 120.106 150.534 120.698C150.618 120.698 150.618 120.698 150.703 120.698C150.449 116.046 150.365 111.225 150.365 106.319ZM69.5617 69.8647C69.3082 69.6955 68.9701 69.5263 68.7165 69.4418C65.1666 67.6655 61.6166 65.8893 58.1512 64.0285C54.6858 62.2523 51.3049 60.3069 47.8395 58.5307C45.642 57.4311 43.3599 56.5853 40.9932 56.0778C35.7529 54.8091 30.428 53.9633 25.0186 53.5404C21.8912 53.2866 18.8484 52.61 15.8902 51.4258C10.9879 49.565 6.50822 47.1121 2.45116 43.898C2.11307 43.6443 1.8595 43.4751 1.52141 43.2214C1.43689 43.3059 1.43689 43.3059 1.35237 43.3905C2.45116 44.9976 3.54994 46.6046 4.73325 48.1271C7.43796 51.6796 10.1427 55.3166 13.27 58.5307C17.6651 63.0135 22.6519 66.9043 28.3994 69.6109C38.2885 74.2629 48.7693 75.2779 59.5036 73.3325C63.3916 72.5713 67.2796 71.6409 71.2522 71.7255C71.3367 71.7255 71.4212 71.6409 71.6748 71.5563C71.0831 71.3871 70.745 71.3026 70.3224 71.218C68.3784 70.8796 66.4344 70.5413 64.4059 70.2876C60.1798 69.8647 56.0382 69.5263 51.8121 69.188C51.2204 69.1034 50.5442 69.0188 49.9526 69.0188C49.9526 68.9343 49.9526 68.8497 49.9526 68.8497C56.5453 68.4268 63.0535 69.188 69.5617 69.8647ZM183.836 145.904C184.005 145.735 184.089 145.735 184.089 145.65C184.681 143.028 186.033 140.744 187.216 138.376C188.569 135.669 189.921 132.878 191.189 130.087C193.894 123.997 194.908 117.569 194.57 110.971C194.316 106.066 193.302 101.245 192.119 96.508C190.851 91.4331 189.837 86.2736 190.006 80.9449C190.006 80.7757 189.921 80.6911 189.921 80.522C190.006 80.522 190.006 80.6066 190.09 80.6066C189.414 82.0445 188.822 83.5669 188.146 85.0048C186.709 87.8806 185.272 90.7564 183.836 93.5476C182.145 96.6771 180.539 99.8067 179.271 103.105C178.004 106.489 177.496 109.956 177.665 113.594C177.75 115.201 177.835 116.892 177.919 118.499C178.004 120.36 177.75 122.136 177.327 123.913C176.144 128.818 176.736 133.386 179.187 137.869C180.37 139.898 181.384 142.098 182.483 144.128C182.568 144.381 182.737 144.551 182.821 144.804C182.99 143.62 182.99 142.521 183.075 141.421C183.244 137.869 183.667 134.401 184.427 130.933C184.512 130.425 184.596 129.918 184.934 129.579C184.174 134.993 183.498 140.321 183.836 145.904ZM167.776 156.561C167.438 156.477 167.1 156.307 166.847 156.223C164.057 155.631 161.184 154.954 158.394 154.447C152.478 153.432 146.477 153.432 140.56 154.785C137.687 155.462 134.813 156.054 132.193 157.407C129.741 158.676 127.375 160.029 125.093 161.551C121.374 163.92 117.57 166.203 113.598 168.149C112.245 168.826 110.809 169.418 109.287 169.671C107.259 170.094 105.146 170.263 103.117 170.517C102.779 170.517 102.441 170.602 102.187 170.602C102.187 170.686 102.187 170.771 102.187 170.855C103.117 171.109 104.131 171.363 105.061 171.617C111.4 173.224 117.908 174.07 124.501 174.07C129.065 174.07 133.629 173.478 137.771 171.363C138.363 171.109 139.039 170.855 139.631 170.686C141.744 170.01 143.941 170.01 146.139 169.925C149.689 169.84 152.9 168.656 155.859 166.796C157.803 165.527 159.578 164.174 161.437 162.82C164.142 160.875 166.847 159.014 169.889 157.661C169.889 157.661 169.889 157.576 169.974 157.407C167.269 157.661 164.649 158.253 162.113 159.014C159.578 159.691 157.042 160.367 154.506 161.213C151.971 161.974 149.52 162.905 147.068 163.751C147.068 163.666 146.984 163.581 146.984 163.497C150.28 161.89 153.746 160.79 157.211 159.691C160.592 158.507 164.142 157.576 167.776 156.561ZM78.8591 72.3175C73.1962 67.8347 66.7725 64.9589 59.5881 63.7748C65.6737 67.3272 72.0974 70.2876 78.8591 72.3175Z" fill="white"/>
</g>
<defs>
<clipPath id="clip0_131_273">
<rect width="237" height="175" fill="white"/>
</clipPath>
</defs>
</svg>
