<svg width="24" height="24" viewBox="0 0 24 24" fill="none" xmlns="http://www.w3.org/2000/svg">
<g clip-path="url(#clip0_131_348)">
<path d="M23.4264 12.2245C23.4264 11.2412 23.3466 10.5237 23.174 9.77963H11.9522V14.2176H18.5392C18.4064 15.3205 17.6893 16.9815 16.0956 18.0975L16.0733 18.2461L19.6214 20.9963L19.8672 21.0209C22.1248 18.9347 23.4264 15.8653 23.4264 12.2245Z" fill="#4285F4"/>
<path d="M11.9522 23.9176C15.1793 23.9176 17.8884 22.8545 19.8672 21.0209L16.0956 18.0976C15.0863 18.8018 13.7317 19.2934 11.9522 19.2934C8.79154 19.2934 6.10895 17.2074 5.15268 14.324L5.01251 14.3359L1.32312 17.1927L1.27487 17.3269C3.24033 21.2334 7.27753 23.9176 11.9522 23.9176Z" fill="#34A853"/>
<path d="M5.15268 14.3239C4.90036 13.5799 4.75433 12.7825 4.75433 11.9588C4.75433 11.1349 4.90036 10.3377 5.1394 9.59357L5.13272 9.4351L1.39709 6.53238L1.27487 6.59055C0.464813 8.21165 0 10.0321 0 11.9588C0 13.8854 0.464813 15.7058 1.27487 17.3269L5.15268 14.3239Z" fill="#FBBC05"/>
<path d="M11.9522 4.62403C14.1965 4.62403 15.7104 5.59402 16.5737 6.40461L19.9469 3.10928C17.8752 1.1826 15.1793 0 11.9522 0C7.27753 0 3.24033 2.68406 1.27487 6.59057L5.1394 9.59359C6.10895 6.7102 8.79153 4.62403 11.9522 4.62403Z" fill="#EB4335"/>
</g>
<defs>
<clipPath id="clip0_131_348">
<rect width="24" height="24" fill="white"/>
</clipPath>
</defs>
</svg>
